<svg xmlns="http://www.w3.org/2000/svg" viewBox="0 0 800 380">
  <defs>
    <linearGradient id="skyRJ5" x1="0" y1="0" x2="0" y2="1">
      <stop offset="0%" stop-color="#b3e5fc"/>
      <stop offset="40%" stop-color="#e1f5fe"/>
      <stop offset="100%" stop-color="#fff9c4"/>
    </linearGradient>
  </defs>
  <rect width="800" height="380" fill="url(#skyRJ5)"/>
  <!-- Beautiful sunrise / ascension sky -->
  <circle cx="400" cy="30" r="70" fill="#fff9c4" opacity="0.5"/>
  <!-- Golden light rays pouring down from above -->
  <g stroke="#ffd54f" stroke-width="5" opacity="0.4">
    <line x1="400" y1="95" x2="160" y2="310"/>
    <line x1="400" y1="95" x2="250" y2="320"/>
    <line x1="400" y1="95" x2="340" y2="325"/>
    <line x1="400" y1="95" x2="400" y2="330"/>
    <line x1="400" y1="95" x2="460" y2="325"/>
    <line x1="400" y1="95" x2="550" y2="320"/>
    <line x1="400" y1="95" x2="640" y2="310"/>
  </g>
  <!-- White clouds -->
  <ellipse cx="140" cy="75" rx="80" ry="35" fill="white" opacity="0.8"/>
  <ellipse cx="100" cy="82" rx="55" ry="28" fill="white" opacity="0.85"/>
  <ellipse cx="660" cy="70" rx="85" ry="36" fill="white" opacity="0.8"/>
  <ellipse cx="700" cy="78" rx="58" ry="30" fill="white" opacity="0.85"/>
  <!-- Gentle hill -->
  <ellipse cx="200" cy="340" rx="300" ry="110" fill="#a5d6a7" opacity="0.5"/>
  <ellipse cx="640" cy="345" rx="270" ry="100" fill="#81c784" opacity="0.4"/>
  <rect x="0" y="305" width="800" height="75" fill="#c8e6c9"/>
  <!-- JESUS ASCENDING (floating, glowing, center-top) -->
  <g transform="translate(340,40)">
    <!-- Large radiant glow -->
    <ellipse cx="52" cy="130" rx="90" ry="160" fill="#fff9c4" opacity="0.25"/>
    <!-- Halo prominent -->
    <circle cx="52" cy="26" r="40" fill="none" stroke="#ffd54f" stroke-width="6" opacity="0.7"/>
    <!-- White robe flowing upward -->
    <path d="M8,60 Q2,155 0,190 Q52,200 104,190 Q102,155 96,60 Q78,42 52,38 Q26,42 8,60Z" fill="white"/>
    <path d="M4,148 Q52,158 102,148 Q100,186 52,192 Q4,186 4,148Z" fill="#e0e0e0" opacity="0.3"/>
    <!-- Flowing robe ends -->
    <path d="M0,188 Q26,200 52,195 Q78,200 104,188 Q110,215 52,225 Q-6,215 0,188Z" fill="white" opacity="0.7"/>
    <!-- Head -->
    <circle cx="52" cy="26" r="28" fill="#ffccbc"/>
    <path d="M26,14 Q52,-2 78,14 Q76,4 52,1 Q28,4 26,14Z" fill="#5d4037"/>
    <circle cx="40" cy="20" r="4.5" fill="#5d4037"/>
    <circle cx="64" cy="20" r="4.5" fill="#5d4037"/>
    <circle cx="41" cy="19" r="1.8" fill="white"/>
    <circle cx="65" cy="19" r="1.8" fill="white"/>
    <!-- Transcendent joyful expression -->
    <path d="M36,34 Q52,46 68,34" stroke="#c62828" stroke-width="2.5" fill="none" stroke-linecap="round"/>
    <circle cx="27" cy="28" r="10" fill="#ef9a9a" opacity="0.35"/>
    <circle cx="77" cy="28" r="10" fill="#ef9a9a" opacity="0.35"/>
    <rect x="44" y="54" width="16" height="14" rx="4" fill="#ffccbc"/>
    <path d="M35,44 Q52,56 69,44 Q67,54 52,58 Q37,54 35,44Z" fill="#5d4037" opacity="0.6"/>
    <!-- Arms wide open blessing -->
    <path d="M8,68 Q-32,52 -58,38" stroke="white" stroke-width="16" fill="none" stroke-linecap="round"/>
    <circle cx="-60" cy="36" r="13" fill="#ffccbc"/>
    <path d="M96,68 Q130,52 156,38" stroke="white" stroke-width="16" fill="none" stroke-linecap="round"/>
    <circle cx="158" cy="36" r="13" fill="#ffccbc"/>
  </g>
  <!-- DISCIPLES on ground, looking up (several, worshipping) -->
  <g transform="translate(110,240)">
    <!-- Kneeling disciple 1 -->
    <path d="M4,36 Q2,78 0,90 Q22,96 44,90 Q42,78 40,36 Q28,24 22,22 Q14,24 4,36Z" fill="#546e7a"/>
    <circle cx="22" cy="13" r="19" fill="#e8a87a"/>
    <path d="M4,5 Q22,-8 40,5 Q38,-2 22,-5 Q6,-2 4,5Z" fill="#3e2723"/>
    <circle cx="13" cy="9" r="3.5" fill="#3e2723"/>
    <circle cx="31" cy="9" r="3.5" fill="#3e2723"/>
    <!-- Looking up in awe -->
    <path d="M8,18 Q22,28 36,18" stroke="#c62828" stroke-width="2.5" fill="none" stroke-linecap="round"/>
    <path d="M4,40 Q-16,28 -20,12" stroke="#546e7a" stroke-width="13" fill="none" stroke-linecap="round"/>
    <circle cx="-21" cy="10" r="10" fill="#e8a87a"/>
  </g>
  <g transform="translate(195,248)">
    <path d="M4,34 Q2,74 0,84 Q20,90 40,84 Q38,74 36,34 Q24,22 20,20 Q12,22 4,34Z" fill="#ef6c00"/>
    <circle cx="20" cy="12" r="17" fill="#ffccbc"/>
    <path d="M4,5 Q20,-6 36,5 Q34,-1 20,-3 Q6,-1 4,5Z" fill="#5d4037"/>
    <circle cx="12" cy="9" r="3" fill="#5d4037"/>
    <circle cx="28" cy="9" r="3" fill="#5d4037"/>
    <path d="M8,18 Q20,24 32,18" stroke="#c62828" stroke-width="2" fill="none" stroke-linecap="round"/>
    <path d="M36,38 Q50,26 54,12" stroke="#ef6c00" stroke-width="12" fill="none" stroke-linecap="round"/>
    <circle cx="55" cy="10" r="9" fill="#ffccbc"/>
  </g>
  <g transform="translate(510,242)">
    <path d="M4,36 Q2,78 0,90 Q22,96 44,90 Q42,78 40,36 Q28,24 22,22 Q14,24 4,36Z" fill="#26a69a"/>
    <circle cx="22" cy="13" r="19" fill="#e8a87a"/>
    <path d="M4,5 Q22,-8 40,5 Q38,-2 22,-5 Q6,-2 4,5Z" fill="#4e342e"/>
    <circle cx="13" cy="9" r="3.5" fill="#4e342e"/>
    <circle cx="31" cy="9" r="3.5" fill="#4e342e"/>
    <path d="M8,18 Q22,28 36,18" stroke="#c62828" stroke-width="2.5" fill="none" stroke-linecap="round"/>
    <path d="M4,40 Q-14,28 -18,14" stroke="#26a69a" stroke-width="13" fill="none" stroke-linecap="round"/>
    <circle cx="-19" cy="12" r="10" fill="#e8a87a"/>
  </g>
  <g transform="translate(590,248)">
    <path d="M4,34 Q2,74 0,84 Q20,90 40,84 Q38,74 36,34 Q24,22 20,20 Q12,22 4,34Z" fill="#c62828"/>
    <circle cx="20" cy="12" r="17" fill="#ffccbc"/>
    <path d="M4,5 Q20,-6 36,5 Q34,-1 20,-3 Q6,-1 4,5Z" fill="#5d4037"/>
    <circle cx="12" cy="9" r="3" fill="#5d4037"/>
    <circle cx="28" cy="9" r="3" fill="#5d4037"/>
    <path d="M8,18 Q20,26 32,18" stroke="#c62828" stroke-width="2" fill="none" stroke-linecap="round"/>
    <path d="M36,38 Q48,26 52,12" stroke="#c62828" stroke-width="12" fill="none" stroke-linecap="round"/>
    <circle cx="53" cy="10" r="9" fill="#ffccbc"/>
  </g>
  <!-- Glory sparkles and stars -->
  <g fill="#ffd54f" opacity="0.9">
    <polygon points="398,80 401,90 411,90 403,96 406,106 398,100 390,106 393,96 385,90 395,90"/>
    <circle cx="340" cy="100" r="5"/><circle cx="460" cy="98" r="5"/>
    <circle cx="360" cy="118" r="4"/><circle cx="440" cy="115" r="4"/>
    <circle cx="310" cy="135" r="3.5"/><circle cx="490" cy="132" r="3.5"/>
  </g>
</svg>
