<svg xmlns="http://www.w3.org/2000/svg" viewBox="0 0 800 380">
  <defs>
    <linearGradient id="babel3_sky" x1="0%" y1="0%" x2="0%" y2="100%">
      <stop offset="0%" stop-color="#1e3a5f"/>
      <stop offset="40%" stop-color="#1d4ed8"/>
      <stop offset="100%" stop-color="#f59e0b"/>
    </linearGradient>
    <linearGradient id="babel3_tower" x1="0%" y1="0%" x2="100%" y2="0%">
      <stop offset="0%" stop-color="#92400e"/>
      <stop offset="50%" stop-color="#d97706"/>
      <stop offset="100%" stop-color="#78350f"/>
    </linearGradient>
    <linearGradient id="babel3_ground" x1="0%" y1="0%" x2="0%" y2="100%">
      <stop offset="0%" stop-color="#d97706"/>
      <stop offset="100%" stop-color="#78350f"/>
    </linearGradient>
    <radialGradient id="babel3_starryglow" cx="50%" cy="0%" r="60%">
      <stop offset="0%" stop-color="#fef9c3" stop-opacity="0.3"/>
      <stop offset="100%" stop-color="#fef9c3" stop-opacity="0"/>
    </radialGradient>
  </defs>
  <!-- Sky (night/evening, tower reaching clouds) -->
  <rect width="800" height="380" fill="url(#babel3_sky)"/>
  <rect width="800" height="380" fill="url(#babel3_starryglow)"/>
  <!-- Stars -->
  <circle cx="60" cy="30" r="2" fill="white" opacity="0.8"/>
  <circle cx="120" cy="15" r="1.5" fill="white" opacity="0.7"/>
  <circle cx="180" cy="40" r="2" fill="white" opacity="0.9"/>
  <circle cx="250" cy="20" r="1.5" fill="white" opacity="0.7"/>
  <circle cx="620" cy="25" r="2" fill="white" opacity="0.8"/>
  <circle cx="680" cy="12" r="1.5" fill="white" opacity="0.7"/>
  <circle cx="740" cy="35" r="2" fill="white" opacity="0.9"/>
  <circle cx="710" cy="55" r="1.5" fill="white" opacity="0.6"/>
  <circle cx="150" cy="65" r="1.5" fill="white" opacity="0.6"/>
  <circle cx="640" cy="65" r="1.5" fill="white" opacity="0.6"/>
  <!-- Heavy clouds at top (tower reaching them) -->
  <ellipse cx="180" cy="95" rx="120" ry="45" fill="#f0f9ff" opacity="0.7"/>
  <ellipse cx="240" cy="78" rx="90" ry="40" fill="white" opacity="0.75"/>
  <ellipse cx="130" cy="88" rx="70" ry="35" fill="#e0f2fe" opacity="0.7"/>
  <ellipse cx="600" cy="85" rx="125" ry="48" fill="#f0f9ff" opacity="0.7"/>
  <ellipse cx="660" cy="68" rx="92" ry="42" fill="white" opacity="0.75"/>
  <ellipse cx="550" cy="80" rx="72" ry="36" fill="#e0f2fe" opacity="0.7"/>
  <!-- Central tower -->
  <!-- VERY TALL TOWER reaching clouds -->
  <!-- Base -->
  <rect x="268" y="308" width="264" height="24" rx="3" fill="#78350f"/>
  <!-- Layers stacking up -->
  <rect x="280" y="284" width="240" height="26" rx="3" fill="#92400e"/>
  <rect x="294" y="258" width="212" height="28" rx="3" fill="#d97706"/>
  <rect x="308" y="232" width="184" height="28" rx="3" fill="#b45309"/>
  <rect x="322" y="206" width="156" height="28" rx="3" fill="#d97706"/>
  <rect x="335" y="180" width="130" height="28" rx="3" fill="#92400e"/>
  <rect x="348" y="154" width="104" height="28" rx="3" fill="#d97706"/>
  <rect x="360" y="128" width="80" height="28" rx="3" fill="#b45309"/>
  <rect x="370" y="102" width="60" height="28" rx="3" fill="#d97706"/>
  <rect x="378" y="78" width="44" height="26" rx="3" fill="#92400e"/>
  <!-- Spire going into clouds -->
  <polygon points="400,20 382,78 418,78" fill="#f59e0b"/>
  <polygon points="400,20 393,50 407,50" fill="#fde047"/>
  <!-- Brick texture lines -->
  <line x1="270" y1="320" x2="530" y2="320" stroke="#78350f" stroke-width="1.5" opacity="0.5"/>
  <line x1="282" y1="296" x2="518" y2="296" stroke="#78350f" stroke-width="1.5" opacity="0.5"/>
  <line x1="296" y1="270" x2="504" y2="270" stroke="#78350f" stroke-width="1.5" opacity="0.5"/>
  <line x1="310" y1="244" x2="490" y2="244" stroke="#78350f" stroke-width="1.5" opacity="0.5"/>
  <line x1="324" y1="218" x2="476" y2="218" stroke="#78350f" stroke-width="1.5" opacity="0.5"/>
  <line x1="337" y1="192" x2="463" y2="192" stroke="#78350f" stroke-width="1.5" opacity="0.5"/>
  <line x1="350" y1="166" x2="450" y2="166" stroke="#78350f" stroke-width="1.5" opacity="0.5"/>
  <line x1="362" y1="140" x2="438" y2="140" stroke="#78350f" stroke-width="1.5" opacity="0.5"/>
  <line x1="372" y1="114" x2="428" y2="114" stroke="#78350f" stroke-width="1.5" opacity="0.5"/>
  <!-- People on top of tower, arms raised proudly -->
  <circle cx="385" cy="92" r="8" fill="#d97706"/>
  <rect x="380" y="98" width="10" height="12" rx="3" fill="#b45309"/>
  <path d="M380 100 Q370 90 366 82" stroke="#b45309" stroke-width="6" fill="none" stroke-linecap="round"/>
  <path d="M390 100 Q400 90 404 82" stroke="#b45309" stroke-width="6" fill="none" stroke-linecap="round"/>
  <circle cx="415" cy="92" r="8" fill="#1d4ed8"/>
  <rect x="410" y="98" width="10" height="12" rx="3" fill="#2563eb"/>
  <path d="M410 100 Q400 90 396 82" stroke="#2563eb" stroke-width="6" fill="none" stroke-linecap="round"/>
  <path d="M420 100 Q430 90 434 82" stroke="#2563eb" stroke-width="6" fill="none" stroke-linecap="round"/>
  <!-- Workers on various levels -->
  <circle cx="362" cy="148" r="7" fill="#dc2626"/>
  <rect x="357" y="153" width="10" height="12" rx="3" fill="#ef4444"/>
  <circle cx="430" cy="148" r="7" fill="#15803d"/>
  <rect x="425" y="153" width="10" height="12" rx="3" fill="#16a34a"/>
  <circle cx="340" cy="197" r="7" fill="#7c3aed"/>
  <rect x="335" y="202" width="10" height="12" rx="3" fill="#6d28d9"/>
  <circle cx="452" cy="197" r="7" fill="#f97316"/>
  <rect x="447" y="202" width="10" height="12" rx="3" fill="#ea580c"/>
  <!-- People at base looking up proudly -->
  <circle cx="180" cy="315" r="9" fill="#d97706"/>
  <rect x="174" y="321" width="12" height="15" rx="3" fill="#b45309"/>
  <path d="M174 325 Q165 313 162 305" stroke="#b45309" stroke-width="7" fill="none" stroke-linecap="round"/>
  <path d="M186 325 Q195 313 198 305" stroke="#b45309" stroke-width="7" fill="none" stroke-linecap="round"/>
  <circle cx="620" cy="315" r="9" fill="#1d4ed8"/>
  <rect x="614" y="321" width="12" height="15" rx="3" fill="#2563eb"/>
  <path d="M614 325 Q605 313 602 305" stroke="#2563eb" stroke-width="7" fill="none" stroke-linecap="round"/>
  <path d="M626 325 Q635 313 638 305" stroke="#2563eb" stroke-width="7" fill="none" stroke-linecap="round"/>
  <circle cx="220" cy="318" r="9" fill="#7c3aed"/>
  <rect x="214" y="324" width="12" height="15" rx="3" fill="#6d28d9"/>
  <circle cx="580" cy="318" r="9" fill="#f97316"/>
  <rect x="574" y="324" width="12" height="15" rx="3" fill="#ea580c"/>
  <!-- Ground -->
  <rect x="0" y="330" width="800" height="50" fill="url(#babel3_ground)"/>
  <ellipse cx="400" cy="330" rx="480" ry="24" fill="#f59e0b" opacity="0.7"/>
  <!-- Building/houses in background -->
  <rect x="65" y="282" width="55" height="50" fill="#92400e" opacity="0.8"/>
  <polygon points="65,282 92,260 120,282" fill="#78350f" opacity="0.8"/>
  <rect x="685" y="278" width="55" height="55" fill="#92400e" opacity="0.8"/>
  <polygon points="685,278 712,255 740,278" fill="#78350f" opacity="0.8"/>
</svg>
