<svg xmlns="http://www.w3.org/2000/svg" viewBox="0 0 800 400">
  <defs>
    <linearGradient id="babel_sky" x1="0%" y1="0%" x2="0%" y2="100%">
      <stop offset="0%" stop-color="#fef3c7"/>
      <stop offset="50%" stop-color="#fed7aa"/>
      <stop offset="100%" stop-color="#fdba74"/>
    </linearGradient>
    <linearGradient id="babel_ground" x1="0%" y1="0%" x2="0%" y2="100%">
      <stop offset="0%" stop-color="#d97706"/>
      <stop offset="100%" stop-color="#78350f"/>
    </linearGradient>
    <linearGradient id="babel_tower" x1="0%" y1="0%" x2="100%" y2="0%">
      <stop offset="0%" stop-color="#d97706"/>
      <stop offset="50%" stop-color="#f59e0b"/>
      <stop offset="100%" stop-color="#b45309"/>
    </linearGradient>
    <radialGradient id="babel_sun" cx="80%" cy="20%" r="30%">
      <stop offset="0%" stop-color="#fde047"/>
      <stop offset="100%" stop-color="#fde047" stop-opacity="0"/>
    </radialGradient>
  </defs>
  <!-- Sky -->
  <rect width="800" height="400" fill="url(#babel_sky)"/>
  <!-- Sun -->
  <circle cx="680" cy="65" r="48" fill="#fde047"/>
  <ellipse cx="680" cy="65" rx="80" ry="80" fill="url(#babel_sun)"/>
  <!-- Clouds -->
  <ellipse cx="120" cy="55" rx="75" ry="28" fill="white" opacity="0.75"/>
  <ellipse cx="160" cy="42" rx="52" ry="24" fill="white" opacity="0.75"/>
  <ellipse cx="85" cy="48" rx="40" ry="20" fill="white" opacity="0.75"/>
  <ellipse cx="500" cy="45" rx="85" ry="32" fill="white" opacity="0.75"/>
  <ellipse cx="545" cy="30" rx="60" ry="26" fill="white" opacity="0.75"/>
  <!-- Ground/desert -->
  <rect x="0" y="320" width="800" height="80" fill="url(#babel_ground)"/>
  <ellipse cx="400" cy="320" rx="500" ry="30" fill="#f59e0b"/>
  <!-- Desert dunes -->
  <ellipse cx="100" cy="350" rx="150" ry="60" fill="#d97706"/>
  <ellipse cx="700" cy="345" rx="160" ry="65" fill="#b45309"/>
  <!-- Small buildings around the tower -->
  <rect x="80" y="270" width="55" height="55" rx="3" fill="#d97706"/>
  <polygon points="80,270 107,248 135,270" fill="#b45309"/>
  <rect x="90" y="285" width="15" height="20" fill="#78350f"/>
  <rect x="110" y="285" width="15" height="20" fill="#78350f"/>
  <rect x="155" y="280" width="45" height="45" rx="3" fill="#d97706"/>
  <polygon points="155,280 177,262 200,280" fill="#b45309"/>
  <rect x="620" y="268" width="55" height="57" rx="3" fill="#d97706"/>
  <polygon points="620,268 647,245 675,268" fill="#b45309"/>
  <rect x="630" y="283" width="15" height="20" fill="#78350f"/>
  <rect x="650" y="283" width="15" height="20" fill="#78350f"/>
  <rect x="665" y="277" width="45" height="48" rx="3" fill="#d97706"/>
  <!-- MAIN TOWER (BABEL) -->
  <!-- Base layer (widest) -->
  <rect x="240" y="295" width="320" height="32" rx="4" fill="#b45309"/>
  <!-- Layer 2 -->
  <rect x="258" y="265" width="284" height="32" rx="4" fill="#d97706"/>
  <!-- Layer 3 -->
  <rect x="278" y="235" width="244" height="32" rx="4" fill="#f59e0b"/>
  <!-- Layer 4 -->
  <rect x="298" y="205" width="204" height="32" rx="4" fill="#d97706"/>
  <!-- Layer 5 -->
  <rect x="318" y="175" width="164" height="32" rx="4" fill="#b45309"/>
  <!-- Layer 6 -->
  <rect x="338" y="145" width="124" height="32" rx="4" fill="#f59e0b"/>
  <!-- Layer 7 -->
  <rect x="355" y="115" width="90" height="32" rx="4" fill="#d97706"/>
  <!-- Layer 8 (top) -->
  <rect x="368" y="85" width="64" height="32" rx="4" fill="#b45309"/>
  <!-- Spire -->
  <polygon points="400,35 375,85 425,85" fill="#f59e0b"/>
  <polygon points="400,35 390,60 410,60" fill="#fde047"/>
  <!-- Brick lines on tower layers -->
  <line x1="260" y1="285" x2="540" y2="285" stroke="#92400e" stroke-width="1.5" opacity="0.5"/>
  <line x1="280" y1="255" x2="520" y2="255" stroke="#92400e" stroke-width="1.5" opacity="0.5"/>
  <line x1="300" y1="225" x2="500" y2="225" stroke="#92400e" stroke-width="1.5" opacity="0.5"/>
  <line x1="320" y1="195" x2="480" y2="195" stroke="#92400e" stroke-width="1.5" opacity="0.5"/>
  <line x1="340" y1="165" x2="460" y2="165" stroke="#92400e" stroke-width="1.5" opacity="0.5"/>
  <line x1="355" y1="135" x2="445" y2="135" stroke="#92400e" stroke-width="1.5" opacity="0.5"/>
  <!-- Vertical brick lines -->
  <line x1="285" y1="265" x2="285" y2="295" stroke="#92400e" stroke-width="1.5" opacity="0.4"/>
  <line x1="315" y1="265" x2="315" y2="295" stroke="#92400e" stroke-width="1.5" opacity="0.4"/>
  <line x1="345" y1="265" x2="345" y2="295" stroke="#92400e" stroke-width="1.5" opacity="0.4"/>
  <line x1="375" y1="265" x2="375" y2="295" stroke="#92400e" stroke-width="1.5" opacity="0.4"/>
  <line x1="405" y1="265" x2="405" y2="295" stroke="#92400e" stroke-width="1.5" opacity="0.4"/>
  <line x1="435" y1="265" x2="435" y2="295" stroke="#92400e" stroke-width="1.5" opacity="0.4"/>
  <line x1="465" y1="265" x2="465" y2="295" stroke="#92400e" stroke-width="1.5" opacity="0.4"/>
  <line x1="495" y1="265" x2="495" y2="295" stroke="#92400e" stroke-width="1.5" opacity="0.4"/>
  <line x1="525" y1="265" x2="525" y2="295" stroke="#92400e" stroke-width="1.5" opacity="0.4"/>
  <!-- Scaffolding/ramps -->
  <line x1="240" y1="295" x2="170" y2="350" stroke="#92400e" stroke-width="5"/>
  <line x1="560" y1="295" x2="630" y2="350" stroke="#92400e" stroke-width="5"/>
  <!-- People (small figures) working on tower -->
  <circle cx="255" cy="260" r="7" fill="#1c1917"/>
  <rect x="250" y="265" width="10" height="12" rx="3" fill="#1c1917"/>
  <circle cx="290" cy="230" r="7" fill="#7c3aed"/>
  <rect x="285" y="235" width="10" height="12" rx="3" fill="#7c3aed"/>
  <circle cx="510" cy="230" r="7" fill="#1d4ed8"/>
  <rect x="505" y="235" width="10" height="12" rx="3" fill="#1d4ed8"/>
  <circle cx="540" cy="262" r="7" fill="#15803d"/>
  <rect x="535" y="267" width="10" height="12" rx="3" fill="#15803d"/>
  <circle cx="350" cy="200" r="7" fill="#dc2626"/>
  <rect x="345" y="205" width="10" height="12" rx="3" fill="#dc2626"/>
  <circle cx="450" cy="200" r="7" fill="#0891b2"/>
  <rect x="445" y="205" width="10" height="12" rx="3" fill="#0891b2"/>
  <!-- Tiny people at bottom -->
  <circle cx="185" cy="315" r="6" fill="#92400e"/>
  <circle cx="200" cy="312" r="6" fill="#f59e0b"/>
  <circle cx="215" cy="315" r="6" fill="#1d4ed8"/>
  <circle cx="585" cy="315" r="6" fill="#15803d"/>
  <circle cx="600" cy="312" r="6" fill="#dc2626"/>
  <circle cx="615" cy="315" r="6" fill="#7c3aed"/>
  <!-- Palm trees on sides -->
  <rect x="55" y="265" width="8" height="65" fill="#92400e"/>
  <ellipse cx="59" cy="258" rx="28" ry="18" fill="#22c55e"/>
  <path d="M59 258 Q40 240 25 248" stroke="#22c55e" stroke-width="8" fill="none" stroke-linecap="round"/>
  <path d="M59 258 Q78 235 90 242" stroke="#22c55e" stroke-width="8" fill="none" stroke-linecap="round"/>
  <path d="M59 258 Q52 235 48 238" stroke="#22c55e" stroke-width="7" fill="none" stroke-linecap="round"/>
  <rect x="735" y="262" width="8" height="68" fill="#92400e"/>
  <ellipse cx="739" cy="255" rx="28" ry="18" fill="#22c55e"/>
  <path d="M739 255 Q720 237 705 245" stroke="#22c55e" stroke-width="8" fill="none" stroke-linecap="round"/>
  <path d="M739 255 Q758 232 770 239" stroke="#22c55e" stroke-width="8" fill="none" stroke-linecap="round"/>
  <path d="M739 255 Q730 232 728 236" stroke="#22c55e" stroke-width="7" fill="none" stroke-linecap="round"/>
</svg>
