<svg xmlns="http://www.w3.org/2000/svg" viewBox="0 0 800 380">
  <defs>
    <linearGradient id="babel5_sky" x1="0%" y1="0%" x2="0%" y2="100%">
      <stop offset="0%" stop-color="#fef3c7"/>
      <stop offset="50%" stop-color="#fed7aa"/>
      <stop offset="100%" stop-color="#fdba74"/>
    </linearGradient>
    <linearGradient id="babel5_ground" x1="0%" y1="0%" x2="0%" y2="100%">
      <stop offset="0%" stop-color="#d97706"/>
      <stop offset="100%" stop-color="#78350f"/>
    </linearGradient>
  </defs>
  <!-- Sky -->
  <rect width="800" height="380" fill="url(#babel5_sky)"/>
  <!-- Clouds dispersing in different directions -->
  <ellipse cx="80" cy="70" rx="75" ry="28" fill="white" opacity="0.8"/>
  <ellipse cx="400" cy="45" rx="90" ry="32" fill="white" opacity="0.75"/>
  <ellipse cx="720" cy="65" rx="78" ry="30" fill="white" opacity="0.8"/>
  <!-- Background landscape showing different regions -->
  <!-- Mountains on left -->
  <polygon points="0,280 60,180 120,280" fill="#d97706" opacity="0.7"/>
  <polygon points="80,280 160,155 240,280" fill="#b45309" opacity="0.7"/>
  <polygon points="40,280 110,170 180,280" fill="#f59e0b" opacity="0.5"/>
  <!-- Desert in middle (Babel location) -->
  <rect x="0" y="315" width="800" height="65" fill="url(#babel5_ground)"/>
  <ellipse cx="400" cy="315" rx="480" ry="25" fill="#f59e0b" opacity="0.7"/>
  <!-- Mountains on right -->
  <polygon points="620,280 700,165 780,280" fill="#d97706" opacity="0.7"/>
  <polygon points="670,280 750,150 800,280" fill="#b45309" opacity="0.7"/>
  <!-- Distant forests (left direction) -->
  <ellipse cx="90" cy="268" rx="55" ry="35" fill="#15803d" opacity="0.6"/>
  <ellipse cx="140" cy="260" rx="45" ry="40" fill="#16a34a" opacity="0.6"/>
  <!-- Tower of Babel remains (incomplete, being abandoned) -->
  <rect x="322" y="295" width="156" height="22" rx="3" fill="#78350f" opacity="0.8"/>
  <rect x="334" y="273" width="132" height="24" rx="3" fill="#92400e" opacity="0.8"/>
  <rect x="346" y="252" width="108" height="23" rx="3" fill="#d97706" opacity="0.7"/>
  <rect x="358" y="232" width="84" height="22" rx="3" fill="#b45309" opacity="0.7"/>
  <rect x="368" y="213" width="64" height="20" rx="3" fill="#d97706" opacity="0.6"/>
  <rect x="376" y="195" width="48" height="19" rx="3" fill="#92400e" opacity="0.5"/>
  <!-- Unfinished, no spire, abandoned look -->
  <!-- GROUPS OF PEOPLE walking in different directions -->
  <!-- Group going LEFT -->
  <circle cx="165" cy="308" r="10" fill="#dc2626"/>
  <ellipse cx="165" cy="325" rx="9" ry="13" fill="#ef4444"/>
  <path d="M157 315 Q145 308 138 310" stroke="#ef4444" stroke-width="7" fill="none" stroke-linecap="round"/>
  <path d="M173 315 Q185 306 190 308" stroke="#ef4444" stroke-width="7" fill="none" stroke-linecap="round"/>
  <circle cx="138" cy="310" r="8" fill="#ef4444"/>
  <circle cx="195" cy="308" r="10" fill="#f97316"/>
  <ellipse cx="195" cy="325" rx="9" ry="13" fill="#ea580c"/>
  <path d="M185 315 Q173 308 166 310" stroke="#ea580c" stroke-width="7" fill="none" stroke-linecap="round"/>
  <path d="M205 315 Q217 306 222 308" stroke="#ea580c" stroke-width="7" fill="none" stroke-linecap="round"/>
  <!-- Child following the group left -->
  <circle cx="140" cy="316" r="7" fill="#fbbf24"/>
  <ellipse cx="140" cy="330" rx="6" ry="10" fill="#d97706"/>
  <!-- Arrow suggesting direction (subtle path) -->
  <path d="M100 330 Q130 325 160 322" stroke="#92400e" stroke-width="3" fill="none" opacity="0.4" stroke-dasharray="6,4"/>
  <!-- Group going RIGHT -->
  <circle cx="635" cy="308" r="10" fill="#1d4ed8"/>
  <ellipse cx="635" cy="325" rx="9" ry="13" fill="#2563eb"/>
  <path d="M645 315 Q657 308 664 310" stroke="#2563eb" stroke-width="7" fill="none" stroke-linecap="round"/>
  <path d="M625 315 Q613 306 608 308" stroke="#2563eb" stroke-width="7" fill="none" stroke-linecap="round"/>
  <circle cx="665" cy="308" r="10" fill="#7c3aed"/>
  <ellipse cx="665" cy="325" rx="9" ry="13" fill="#6d28d9"/>
  <path d="M675 315 Q687 308 694 310" stroke="#6d28d9" stroke-width="7" fill="none" stroke-linecap="round"/>
  <path d="M655 315 Q643 306 638 310" stroke="#6d28d9" stroke-width="7" fill="none" stroke-linecap="round"/>
  <circle cx="695" cy="310" r="7" fill="#818cf8"/>
  <ellipse cx="695" cy="323" rx="6" ry="10" fill="#6d28d9"/>
  <path d="M690 330 Q720 325 750 322" stroke="#1d4ed8" stroke-width="3" fill="none" opacity="0.4" stroke-dasharray="6,4"/>
  <!-- Group going UP (toward mountains, away from viewer) -->
  <circle cx="255" cy="295" r="10" fill="#15803d"/>
  <ellipse cx="255" cy="312" rx="9" ry="13" fill="#16a34a"/>
  <path d="M245 303 Q233 296 228 298" stroke="#16a34a" stroke-width="7" fill="none" stroke-linecap="round"/>
  <path d="M265 303 Q277 296 282 298" stroke="#16a34a" stroke-width="7" fill="none" stroke-linecap="round"/>
  <circle cx="280" cy="292" r="9" fill="#22c55e"/>
  <ellipse cx="280" cy="308" rx="8" ry="12" fill="#16a34a"/>
  <!-- Group going other direction (diagonal) -->
  <circle cx="545" cy="296" r="10" fill="#92400e"/>
  <ellipse cx="545" cy="313" rx="9" ry="13" fill="#78350f"/>
  <path d="M555 304 Q567 297 572 299" stroke="#78350f" stroke-width="7" fill="none" stroke-linecap="round"/>
  <path d="M535 304 Q523 297 518 299" stroke="#78350f" stroke-width="7" fill="none" stroke-linecap="round"/>
  <circle cx="518" cy="299" r="9" fill="#b45309"/>
  <ellipse cx="518" cy="315" rx="8" ry="12" fill="#92400e"/>
  <!-- Small group near tower looking back sadly -->
  <circle cx="400" cy="310" r="9" fill="#0891b2"/>
  <ellipse cx="400" cy="326" rx="8" ry="12" fill="#0e7490"/>
  <path d="M392 318 Q382 312 378 315" stroke="#0e7490" stroke-width="6" fill="none" stroke-linecap="round"/>
  <path d="M408 318 Q418 312 422 315" stroke="#0e7490" stroke-width="6" fill="none" stroke-linecap="round"/>
  <!-- Curved arrows showing different directions of migration -->
  <path d="M280 305 Q260 290 230 285" stroke="#78350f" stroke-width="2.5" fill="none" opacity="0.5" stroke-dasharray="8,5"/>
  <path d="M520 305 Q540 290 570 285" stroke="#78350f" stroke-width="2.5" fill="none" opacity="0.5" stroke-dasharray="8,5"/>
  <path d="M350 295 Q320 270 290 260" stroke="#78350f" stroke-width="2.5" fill="none" opacity="0.4" stroke-dasharray="8,5"/>
  <path d="M450 295 Q480 270 510 260" stroke="#78350f" stroke-width="2.5" fill="none" opacity="0.4" stroke-dasharray="8,5"/>
  <!-- World map hint (continents in background sky area) -->
  <ellipse cx="130" cy="165" rx="55" ry="38" fill="#d97706" opacity="0.2"/>
  <ellipse cx="400" cy="155" rx="48" ry="30" fill="#d97706" opacity="0.2"/>
  <ellipse cx="660" cy="160" rx="52" ry="35" fill="#d97706" opacity="0.2"/>
</svg>
