<svg xmlns="http://www.w3.org/2000/svg" viewBox="0 0 800 400">
  <defs>
    <linearGradient id="adaoHero_sky" x1="0%" y1="0%" x2="0%" y2="100%">
      <stop offset="0%" stop-color="#fef9c3"/>
      <stop offset="50%" stop-color="#bbf7d0"/>
      <stop offset="100%" stop-color="#14b8a6"/>
    </linearGradient>
    <linearGradient id="adaoHero_ground" x1="0%" y1="0%" x2="0%" y2="100%">
      <stop offset="0%" stop-color="#4ade80"/>
      <stop offset="100%" stop-color="#15803d"/>
    </linearGradient>
    <radialGradient id="adaoHero_sun" cx="50%" cy="30%" r="40%">
      <stop offset="0%" stop-color="#fde68a" stop-opacity="0.9"/>
      <stop offset="100%" stop-color="#f59e0b" stop-opacity="0"/>
    </radialGradient>
    <radialGradient id="adaoHero_glow" cx="50%" cy="50%" r="50%">
      <stop offset="0%" stop-color="#fef08a" stop-opacity="0.7"/>
      <stop offset="100%" stop-color="#fef08a" stop-opacity="0"/>
    </radialGradient>
  </defs>
  <!-- Sky background -->
  <rect width="800" height="400" fill="url(#adaoHero_sky)"/>
  <!-- Sun glow -->
  <ellipse cx="400" cy="80" rx="180" ry="120" fill="url(#adaoHero_sun)"/>
  <!-- Sun -->
  <circle cx="400" cy="60" r="45" fill="#fde047"/>
  <!-- Sun rays -->
  <polygon points="400,5 410,40 400,30 390,40" fill="#fbbf24"/>
  <polygon points="445,20 425,48 430,38 415,45" fill="#fbbf24"/>
  <polygon points="460,55 430,60 440,55 430,65" fill="#fbbf24"/>
  <polygon points="445,95 420,75 430,78 420,65" fill="#fbbf24"/>
  <polygon points="355,20 375,48 370,38 385,45" fill="#fbbf24"/>
  <polygon points="340,55 370,60 360,55 370,65" fill="#fbbf24"/>
  <polygon points="355,95 380,75 370,78 380,65" fill="#fbbf24"/>
  <!-- Clouds -->
  <ellipse cx="120" cy="90" rx="60" ry="25" fill="white" opacity="0.85"/>
  <ellipse cx="155" cy="78" rx="40" ry="22" fill="white" opacity="0.85"/>
  <ellipse cx="85" cy="82" rx="35" ry="18" fill="white" opacity="0.85"/>
  <ellipse cx="650" cy="70" rx="70" ry="28" fill="white" opacity="0.85"/>
  <ellipse cx="690" cy="58" rx="45" ry="22" fill="white" opacity="0.85"/>
  <ellipse cx="615" cy="65" rx="38" ry="20" fill="white" opacity="0.85"/>
  <!-- Ground -->
  <ellipse cx="400" cy="420" rx="460" ry="120" fill="url(#adaoHero_ground)"/>
  <!-- Hills -->
  <ellipse cx="150" cy="370" rx="200" ry="80" fill="#22c55e"/>
  <ellipse cx="650" cy="380" rx="180" ry="70" fill="#22c55e"/>
  <!-- Large tree left -->
  <rect x="110" y="200" width="22" height="130" fill="#854d0e"/>
  <ellipse cx="121" cy="195" rx="65" ry="75" fill="#16a34a"/>
  <ellipse cx="90" cy="220" rx="45" ry="55" fill="#15803d"/>
  <ellipse cx="155" cy="215" rx="50" ry="60" fill="#22c55e"/>
  <!-- Large tree right -->
  <rect x="660" y="190" width="22" height="140" fill="#854d0e"/>
  <ellipse cx="671" cy="185" rx="70" ry="80" fill="#16a34a"/>
  <ellipse cx="640" cy="210" rx="50" ry="60" fill="#15803d"/>
  <ellipse cx="700" cy="200" rx="55" ry="65" fill="#22c55e"/>
  <!-- Central tree (knowledge tree) -->
  <rect x="388" y="170" width="24" height="160" fill="#92400e"/>
  <ellipse cx="400" cy="160" rx="80" ry="90" fill="#15803d"/>
  <ellipse cx="365" cy="185" rx="55" ry="65" fill="#166534"/>
  <ellipse cx="438" cy="180" rx="60" ry="70" fill="#22c55e"/>
  <!-- Forbidden fruit on tree -->
  <circle cx="390" cy="135" r="14" fill="#ef4444"/>
  <circle cx="415" cy="148" r="12" fill="#dc2626"/>
  <circle cx="375" cy="155" r="11" fill="#f87171"/>
  <!-- Flowers -->
  <circle cx="200" cy="355" r="8" fill="#fde047"/>
  <circle cx="195" cy="355" r="5" fill="#f97316"/>
  <circle cx="205" cy="355" r="5" fill="#f97316"/>
  <circle cx="200" cy="350" r="5" fill="#f97316"/>
  <circle cx="200" cy="360" r="5" fill="#f97316"/>
  <circle cx="560" cy="360" r="8" fill="#f9a8d4"/>
  <circle cx="555" cy="360" r="5" fill="#ec4899"/>
  <circle cx="565" cy="360" r="5" fill="#ec4899"/>
  <circle cx="560" cy="355" r="5" fill="#ec4899"/>
  <circle cx="560" cy="365" r="5" fill="#ec4899"/>
  <!-- Animals: deer -->
  <ellipse cx="280" cy="340" rx="30" ry="18" fill="#d97706"/>
  <rect x="268" y="340" width="8" height="25" fill="#b45309"/>
  <rect x="284" y="340" width="8" height="25" fill="#b45309"/>
  <rect x="298" y="338" width="8" height="22" fill="#b45309"/>
  <rect x="314" y="338" width="8" height="22" fill="#b45309"/>
  <ellipse cx="272" cy="332" rx="14" ry="12" fill="#d97706"/>
  <ellipse cx="266" cy="326" rx="5" ry="8" fill="#d97706"/><!-- ear -->
  <circle cx="263" cy="328" r="3" fill="#92400e"/><!-- eye -->
  <!-- Lion -->
  <ellipse cx="540" cy="345" rx="32" ry="20" fill="#f59e0b"/>
  <rect x="528" y="345" width="9" height="22" fill="#d97706"/>
  <rect x="544" y="345" width="9" height="22" fill="#d97706"/>
  <rect x="557" y="343" width="9" height="20" fill="#d97706"/>
  <ellipse cx="536" cy="336" rx="18" ry="15" fill="#f59e0b"/>
  <ellipse cx="536" cy="336" rx="22" ry="19" fill="#b45309" opacity="0.4"/><!-- mane -->
  <circle cx="530" cy="332" r="3" fill="#1c1917"/>
  <!-- Birds -->
  <path d="M300 130 Q310 120 320 130" stroke="#1d4ed8" stroke-width="3" fill="none"/>
  <path d="M480 110 Q492 98 504 110" stroke="#1d4ed8" stroke-width="3" fill="none"/>
  <path d="M200 150 Q210 140 220 150" stroke="#7c3aed" stroke-width="2.5" fill="none"/>
  <!-- Butterflies -->
  <ellipse cx="340" cy="270" rx="12" ry="7" fill="#f472b6" opacity="0.8" transform="rotate(-20,340,270)"/>
  <ellipse cx="352" cy="268" rx="12" ry="7" fill="#ec4899" opacity="0.8" transform="rotate(20,352,268)"/>
  <circle cx="346" cy="269" r="3" fill="#831843"/>
  <ellipse cx="460" cy="260" rx="11" ry="6" fill="#a78bfa" opacity="0.8" transform="rotate(-25,460,260)"/>
  <ellipse cx="472" cy="258" rx="11" ry="6" fill="#7c3aed" opacity="0.8" transform="rotate(25,472,258)"/>
  <circle cx="466" cy="259" r="3" fill="#4c1d95"/>
  <!-- River -->
  <path d="M50 390 Q200 360 400 370 Q600 380 750 360" stroke="#7dd3fc" stroke-width="12" fill="none" opacity="0.7"/>
  <path d="M50 395 Q200 368 400 376 Q600 386 750 366" stroke="#bae6fd" stroke-width="5" fill="none" opacity="0.5"/>
</svg>
