<svg xmlns="http://www.w3.org/2000/svg" viewBox="0 0 800 380">
  <defs>
    <linearGradient id="bc1_bg" x1="0%" y1="0%" x2="100%" y2="100%">
      <stop offset="0%" style="stop-color:#fef9c3"/>
      <stop offset="100%" style="stop-color:#fde68a"/>
    </linearGradient>
    <linearGradient id="bc1_floor" x1="0%" y1="0%" x2="0%" y2="100%">
      <stop offset="0%" style="stop-color:#d97706"/>
      <stop offset="100%" style="stop-color:#92400e"/>
    </linearGradient>
  </defs>
  <rect width="800" height="380" fill="url(#bc1_bg)"/>
  <!-- Ceiling decorations -->
  <rect x="0" y="0" width="800" height="10" fill="#f59e0b"/>
  <!-- Hanging garlands -->
  <path d="M0,25 Q100,45 200,25 Q300,5 400,25 Q500,45 600,25 Q700,5 800,25" stroke="#84cc16" stroke-width="3" fill="none"/>
  <path d="M0,38 Q100,58 200,38 Q300,18 400,38 Q500,58 600,38 Q700,18 800,38" stroke="#f59e0b" stroke-width="2.5" fill="none"/>
  <!-- Colorful banners/triangles -->
  <polygon points="70,25 90,52 110,25" fill="#ef4444"/>
  <polygon points="170,22 190,49 210,22" fill="#3b82f6"/>
  <polygon points="270,26 290,53 310,26" fill="#10b981"/>
  <polygon points="370,22 390,49 410,22" fill="#f59e0b"/>
  <polygon points="470,26 490,53 510,26" fill="#8b5cf6"/>
  <polygon points="570,22 590,49 610,22" fill="#ec4899"/>
  <polygon points="670,26 690,53 710,26" fill="#ef4444"/>
  <!-- Floor -->
  <rect x="0" y="310" width="800" height="70" fill="url(#bc1_floor)"/>
  <!-- Floor tiles -->
  <line x1="0" y1="340" x2="800" y2="340" stroke="#b45309" stroke-width="2" opacity="0.4"/>
  <line x1="100" y1="310" x2="100" y2="380" stroke="#b45309" stroke-width="2" opacity="0.3"/>
  <line x1="200" y1="310" x2="200" y2="380" stroke="#b45309" stroke-width="2" opacity="0.3"/>
  <line x1="300" y1="310" x2="300" y2="380" stroke="#b45309" stroke-width="2" opacity="0.3"/>
  <line x1="400" y1="310" x2="400" y2="380" stroke="#b45309" stroke-width="2" opacity="0.3"/>
  <line x1="500" y1="310" x2="500" y2="380" stroke="#b45309" stroke-width="2" opacity="0.3"/>
  <line x1="600" y1="310" x2="600" y2="380" stroke="#b45309" stroke-width="2" opacity="0.3"/>
  <line x1="700" y1="310" x2="700" y2="380" stroke="#b45309" stroke-width="2" opacity="0.3"/>
  <!-- Tables at feast -->
  <rect x="80" y="230" width="280" height="85" rx="8" fill="#b45309"/>
  <rect x="80" y="226" width="280" height="14" rx="3" fill="#d97706"/>
  <rect x="450" y="230" width="280" height="85" rx="8" fill="#b45309"/>
  <rect x="450" y="226" width="280" height="14" rx="3" fill="#d97706"/>
  <!-- Food on tables -->
  <circle cx="150" cy="232" r="15" fill="#fbbf24" opacity="0.7"/>
  <circle cx="220" cy="232" r="15" fill="#ef4444" opacity="0.7"/>
  <circle cx="290" cy="232" r="15" fill="#86efac" opacity="0.7"/>
  <circle cx="520" cy="232" r="15" fill="#fb923c" opacity="0.7"/>
  <circle cx="590" cy="232" r="15" fill="#fbbf24" opacity="0.7"/>
  <circle cx="660" cy="232" r="15" fill="#a78bfa" opacity="0.7"/>
  <!-- Wine cups on table -->
  <rect x="175" y="212" width="14" height="22" rx="4" fill="#dc2626"/>
  <rect x="255" y="214" width="14" height="20" rx="4" fill="#dc2626"/>
  <rect x="490" y="212" width="14" height="22" rx="4" fill="#dc2626"/>
  <rect x="620" y="214" width="14" height="20" rx="4" fill="#dc2626"/>
  <!-- Bride and Groom center - dancing/celebrating -->
  <!-- Bride in white -->
  <rect x="330" y="155" width="58" height="135" rx="13" fill="#f8fafc"/>
  <circle cx="359" cy="141" r="26" fill="#fde68a"/>
  <ellipse cx="359" cy="130" rx="26" ry="15" fill="#451a03"/>
  <ellipse cx="359" cy="122" rx="26" ry="11" fill="white" opacity="0.7"/>
  <!-- veil/flower crown -->
  <circle cx="340" cy="126" r="5" fill="#f472b6"/>
  <circle cx="359" cy="120" r="5" fill="#f472b6"/>
  <circle cx="378" cy="126" r="5" fill="#f472b6"/>
  <circle cx="350" cy="139" r="5" fill="#78350f"/>
  <circle cx="368" cy="139" r="5" fill="#78350f"/>
  <path d="M348,151 Q359,162 370,151" stroke="#92400e" stroke-width="3" fill="none"/>
  <!-- Bride dancing arm up -->
  <line x1="330" y1="183" x2="305" y2="158" stroke="#fde68a" stroke-width="9" stroke-linecap="round"/>
  <line x1="388" y1="183" x2="410" y2="158" stroke="#f8fafc" stroke-width="9" stroke-linecap="round"/>
  <!-- Groom in blue/gold -->
  <rect x="415" y="158" width="55" height="132" rx="12" fill="#1d4ed8"/>
  <circle cx="442" cy="144" r="26" fill="#d97706"/>
  <ellipse cx="442" cy="133" rx="26" ry="15" fill="#78350f"/>
  <!-- groom crown/hat -->
  <rect x="422" y="120" width="40" height="10" rx="3" fill="#b45309"/>
  <circle cx="442" cy="119" r="5" fill="#f59e0b"/>
  <circle cx="350" cy="139" r="5" fill="#78350f"/>
  <circle cx="452" cy="140" r="5" fill="#78350f"/>
  <path d="M434,151 Q442,162 450,151" stroke="#92400e" stroke-width="3" fill="none"/>
  <line x1="415" y1="182" x2="390" y2="162" stroke="#1d4ed8" stroke-width="9" stroke-linecap="round"/>
  <line x1="470" y1="182" x2="492" y2="162" stroke="#fde68a" stroke-width="9" stroke-linecap="round"/>
  <!-- Guests dancing around -->
  <!-- Guest left 1 - red -->
  <rect x="95" y="175" width="50" height="115" rx="10" fill="#dc2626"/>
  <circle cx="120" cy="162" r="23" fill="#fde68a"/>
  <ellipse cx="120" cy="152" rx="23" ry="13" fill="#b91c1c"/>
  <path d="M113,169 Q120,177 127,169" stroke="#78350f" stroke-width="2.5" fill="none"/>
  <!-- dancing arms -->
  <line x1="95" y1="198" x2="68" y2="178" stroke="#fde68a" stroke-width="8" stroke-linecap="round"/>
  <line x1="145" y1="198" x2="168" y2="178" stroke="#dc2626" stroke-width="8" stroke-linecap="round"/>
  <!-- Guest left 2 - green -->
  <rect x="165" y="178" width="48" height="112" rx="10" fill="#16a34a"/>
  <circle cx="189" cy="165" r="22" fill="#fbbf24"/>
  <ellipse cx="189" cy="155" rx="22" ry="12" fill="#15803d"/>
  <path d="M182,172 Q189,180 196,172" stroke="#78350f" stroke-width="2.5" fill="none"/>
  <!-- Guest right 1 - purple -->
  <rect x="560" y="172" width="50" height="118" rx="10" fill="#7c3aed"/>
  <circle cx="585" cy="159" r="23" fill="#fde68a"/>
  <ellipse cx="585" cy="149" rx="23" ry="13" fill="#5b21b6"/>
  <path d="M578,166 Q585,174 592,166" stroke="#78350f" stroke-width="2.5" fill="none"/>
  <line x1="560" y1="195" x2="535" y2="175" stroke="#fde68a" stroke-width="8" stroke-linecap="round"/>
  <line x1="610" y1="195" x2="632" y2="175" stroke="#7c3aed" stroke-width="8" stroke-linecap="round"/>
  <!-- Guest right 2 - orange -->
  <rect x="635" y="176" width="48" height="114" rx="10" fill="#f59e0b"/>
  <circle cx="659" cy="163" r="22" fill="#fde68a"/>
  <ellipse cx="659" cy="153" rx="22" ry="12" fill="#b45309"/>
  <path d="M652,170 Q659,178 666,170" stroke="#78350f" stroke-width="2.5" fill="none"/>
  <line x1="683" y1="198" x2="705" y2="178" stroke="#f59e0b" stroke-width="8" stroke-linecap="round"/>
  <!-- Music notes floating -->
  <ellipse cx="300" cy="110" rx="8" ry="6" fill="#78350f" opacity="0.4"/>
  <rect x="308" y="98" width="3" height="14" fill="#78350f" opacity="0.4"/>
  <ellipse cx="480" cy="115" rx="8" ry="6" fill="#78350f" opacity="0.4"/>
  <rect x="488" y="103" width="3" height="14" fill="#78350f" opacity="0.4"/>
</svg>
