<svg xmlns="http://www.w3.org/2000/svg" viewBox="0 0 800 380">
  <defs>
    <linearGradient id="bc5_bg" x1="0%" y1="0%" x2="100%" y2="100%">
      <stop offset="0%" style="stop-color:#fffbeb"/>
      <stop offset="100%" style="stop-color:#fef3c7"/>
    </linearGradient>
    <linearGradient id="bc5_floor" x1="0%" y1="0%" x2="0%" y2="100%">
      <stop offset="0%" style="stop-color:#d97706"/>
      <stop offset="100%" style="stop-color:#92400e"/>
    </linearGradient>
    <radialGradient id="bc5_miracle" cx="50%" cy="50%" r="50%">
      <stop offset="0%" style="stop-color:#dc2626;stop-opacity:0.4"/>
      <stop offset="100%" style="stop-color:#fbbf24;stop-opacity:0"/>
    </radialGradient>
  </defs>
  <rect width="800" height="380" fill="url(#bc5_bg)"/>
  <!-- Ceiling decoration -->
  <rect x="0" y="0" width="800" height="8" fill="#f59e0b"/>
  <!-- Festive banners restored -->
  <path d="M0,22 Q100,38 200,22 Q300,6 400,22 Q500,38 600,22 Q700,6 800,22" stroke="#84cc16" stroke-width="2.5" fill="none" opacity="0.7"/>
  <polygon points="80,22 100,48 120,22" fill="#ef4444" opacity="0.7"/>
  <polygon points="300,22 320,48 340,22" fill="#10b981" opacity="0.7"/>
  <polygon points="470,22 490,48 510,22" fill="#8b5cf6" opacity="0.7"/>
  <polygon points="660,22 680,48 700,22" fill="#ef4444" opacity="0.7"/>
  <!-- Floor -->
  <rect x="0" y="320" width="800" height="60" fill="url(#bc5_floor)"/>
  <!-- The LARGE stone jar filled with WINE - red glowing -->
  <!-- Miracle glow around the main jar -->
  <circle cx="350" cy="240" r="130" fill="url(#bc5_miracle)"/>
  <!-- Main large jar - center -->
  <ellipse cx="350" cy="305" rx="45" ry="28" fill="#7f1d1d"/>
  <rect x="305" y="165" width="90" height="145" rx="22" fill="#991b1b"/>
  <ellipse cx="350" cy="166" rx="45" ry="22" fill="#b91c1c"/>
  <ellipse cx="350" cy="162" rx="36" ry="14" fill="#dc2626"/>
  <!-- RED WINE overflowing at top - the miracle visible! -->
  <ellipse cx="350" cy="164" rx="33" ry="13" fill="#dc2626"/>
  <!-- Wine dripping over side -->
  <path d="M317,175 Q310,195 315,220" stroke="#dc2626" stroke-width="5" fill="none" opacity="0.8"/>
  <path d="M383,175 Q390,195 385,220" stroke="#dc2626" stroke-width="5" fill="none" opacity="0.8"/>
  <!-- Wine shine on jar -->
  <ellipse cx="325" cy="200" rx="8" ry="25" fill="#f87171" opacity="0.3"/>
  <!-- Main servant - tasting the miracle wine - SHOCKED/AMAZED expression -->
  <!-- Servant figure center-right -->
  <rect x="460" y="175" width="58" height="165" rx="12" fill="#6b7280"/>
  <circle cx="489" cy="160" r="28" fill="#fbbf24"/>
  <ellipse cx="489" cy="149" rx="28" ry="16" fill="#374151"/>
  <!-- VERY SURPRISED face - eyes WIDE, eyebrows UP, big O mouth -->
  <!-- Wide open eyes in surprise -->
  <ellipse cx="479" cy="158" rx="8" ry="9" fill="white" opacity="0.9"/>
  <ellipse cx="499" cy="158" rx="8" ry="9" fill="white" opacity="0.9"/>
  <circle cx="480" cy="159" r="5.5" fill="#451a03"/>
  <circle cx="500" cy="159" r="5.5" fill="#451a03"/>
  <!-- light in eyes - surprised sparkle -->
  <circle cx="481" cy="157" r="2.5" fill="white"/>
  <circle cx="501" cy="157" r="2.5" fill="white"/>
  <!-- Eyebrows raised high in surprise -->
  <path d="M472,147 Q479,141 486,147" stroke="#374151" stroke-width="3" fill="none"/>
  <path d="M492,147 Q499,141 506,147" stroke="#374151" stroke-width="3" fill="none"/>
  <!-- BIG OPEN surprised mouth - O shape -->
  <ellipse cx="489" cy="174" rx="9" ry="10" fill="#92400e"/>
  <ellipse cx="489" cy="175" rx="6" ry="7" fill="#b91c1c"/>
  <!-- Holding cup of wine to lips -->
  <line x1="460" y1="205" x2="430" y2="188" stroke="#fbbf24" stroke-width="10" stroke-linecap="round"/>
  <!-- cup with red wine -->
  <rect x="415" y="178" width="20" height="16" rx="5" fill="#6b7280"/>
  <ellipse cx="425" cy="179" rx="10" ry="5" fill="#dc2626"/>
  <!-- Other servants/guests in background watching with surprise -->
  <rect x="560" y="195" width="46" height="145" rx="10" fill="#4b5563"/>
  <circle cx="583" cy="183" r="21" fill="#d97706"/>
  <ellipse cx="583" cy="174" rx="21" ry="12" fill="#78350f"/>
  <!-- also surprised -->
  <ellipse cx="576" cy="182" rx="5" ry="6" fill="white" opacity="0.8"/>
  <ellipse cx="590" cy="182" rx="5" ry="6" fill="white" opacity="0.8"/>
  <circle cx="577" cy="183" r="3" fill="#451a03"/>
  <circle cx="591" cy="183" r="3" fill="#451a03"/>
  <ellipse cx="583" cy="193" rx="4" ry="5" fill="#92400e"/>
  <rect x="620" y="200" width="44" height="140" rx="10" fill="#374151"/>
  <circle cx="642" cy="188" r="21" fill="#fbbf24"/>
  <ellipse cx="642" cy="179" rx="21" ry="12" fill="#374151"/>
  <ellipse cx="635" cy="187" rx="5" ry="6" fill="white" opacity="0.8"/>
  <ellipse cx="649" cy="187" rx="5" ry="6" fill="white" opacity="0.8"/>
  <circle cx="636" cy="188" r="3" fill="#451a03"/>
  <circle cx="650" cy="188" r="3" fill="#451a03"/>
  <ellipse cx="642" cy="198" rx="4" ry="5" fill="#92400e"/>
  <!-- Servant on left carrying a cup to the head waiter -->
  <rect x="135" y="192" width="46" height="148" rx="10" fill="#4b5563"/>
  <circle cx="158" cy="180" r="21" fill="#fbbf24"/>
  <ellipse cx="158" cy="171" rx="21" ry="12" fill="#374151"/>
  <!-- excited face -->
  <circle cx="151" cy="179" r="4" fill="#78350f"/>
  <circle cx="165" cy="179" r="4" fill="#78350f"/>
  <path d="M149,190 Q158,198 167,190" stroke="#78350f" stroke-width="2.5" fill="none"/>
  <!-- carrying cup of wine toward banquet master -->
  <line x1="181" y1="218" x2="205" y2="205" stroke="#fbbf24" stroke-width="8" stroke-linecap="round"/>
  <!-- cup with red wine -->
  <rect x="200" y="197" width="18" height="14" rx="4" fill="#6b7280"/>
  <ellipse cx="209" cy="198" rx="9" ry="4" fill="#dc2626"/>
  <!-- Head banquet master on far left - being served -->
  <rect x="60" y="195" width="52" height="145" rx="11" fill="#1d4ed8"/>
  <circle cx="86" cy="182" r="24" fill="#d97706"/>
  <ellipse cx="86" cy="171" rx="24" ry="14" fill="#78350f"/>
  <!-- honorable headband -->
  <rect x="64" y="162" width="44" height="10" rx="3" fill="#f59e0b"/>
  <circle cx="86" cy="161" r="5" fill="#fbbf24"/>
  <!-- looking surprised at the wine -->
  <ellipse cx="79" cy="181" rx="5" ry="6" fill="white" opacity="0.8"/>
  <ellipse cx="93" cy="181" rx="5" ry="6" fill="white" opacity="0.8"/>
  <circle cx="80" cy="182" r="3" fill="#451a03"/>
  <circle cx="94" cy="182" r="3" fill="#451a03"/>
  <path d="M78,195 Q86,204 94,195" stroke="#78350f" stroke-width="2.5" fill="none"/>
  <!-- Jesus in background - humble smile, knowing -->
  <rect x="245" y="205" width="52" height="115" rx="11" fill="#ffffff" opacity="0.8"/>
  <circle cx="271" cy="192" r="24" fill="#fde68a" opacity="0.9"/>
  <ellipse cx="271" cy="181" rx="24" ry="14" fill="#92400e" opacity="0.9"/>
  <circle cx="263" cy="191" r="4" fill="#78350f" opacity="0.8"/>
  <circle cx="279" cy="191" r="4" fill="#78350f" opacity="0.8"/>
  <path d="M259,203 Q271,213 283,203" stroke="#78350f" stroke-width="2.5" fill="none" opacity="0.9"/>
</svg>
