<svg xmlns="http://www.w3.org/2000/svg" viewBox="0 0 800 380">
  <defs>
    <linearGradient id="skyJA1" x1="0" y1="0" x2="0" y2="1">
      <stop offset="0%" stop-color="#b3e5fc"/>
      <stop offset="55%" stop-color="#e1f5fe"/>
      <stop offset="100%" stop-color="#fff9c4"/>
    </linearGradient>
  </defs>
  <rect width="800" height="380" fill="url(#skyJA1)"/>
  <!-- Hills (green, open countryside) -->
  <ellipse cx="200" cy="330" rx="320" ry="110" fill="#a5d6a7" opacity="0.55"/>
  <ellipse cx="650" cy="340" rx="280" ry="105" fill="#81c784" opacity="0.45"/>
  <!-- Ground -->
  <rect x="0" y="298" width="800" height="82" fill="#c8e6c9"/>
  <path d="M0,304 Q200,296 400,304 Q600,312 800,304" fill="none" stroke="#a5d6a7" stroke-width="2" opacity="0.5"/>
  <!-- Sun -->
  <circle cx="680" cy="65" r="46" fill="#fff9c4" opacity="0.9"/>
  <!-- LARGE CROWD (many dots/heads in background) -->
  <g opacity="0.65">
    <!-- Row 1 far back -->
    <circle cx="60" cy="255" r="8" fill="#e8a87a"/>
    <circle cx="88" cy="250" r="8" fill="#ffccbc"/>
    <circle cx="116" cy="258" r="8" fill="#e8a87a"/>
    <circle cx="144" cy="252" r="8" fill="#ffccbc"/>
    <circle cx="172" cy="256" r="8" fill="#e8a87a"/>
    <circle cx="200" cy="250" r="8" fill="#ffccbc"/>
    <circle cx="228" cy="255" r="8" fill="#e8a87a"/>
    <circle cx="256" cy="248" r="8" fill="#ffccbc"/>
    <circle cx="284" cy="254" r="8" fill="#e8a87a"/>
    <circle cx="312" cy="251" r="8" fill="#ffccbc"/>
    <circle cx="340" cy="257" r="8" fill="#e8a87a"/>
    <circle cx="368" cy="249" r="8" fill="#ffccbc"/>
    <circle cx="396" cy="255" r="8" fill="#e8a87a"/>
    <circle cx="424" cy="252" r="8" fill="#ffccbc"/>
    <circle cx="452" cy="258" r="8" fill="#e8a87a"/>
    <circle cx="480" cy="250" r="8" fill="#ffccbc"/>
    <circle cx="508" cy="254" r="8" fill="#e8a87a"/>
    <circle cx="536" cy="248" r="8" fill="#ffccbc"/>
    <circle cx="564" cy="256" r="8" fill="#e8a87a"/>
    <circle cx="592" cy="252" r="8" fill="#ffccbc"/>
    <circle cx="620" cy="258" r="8" fill="#e8a87a"/>
    <circle cx="648" cy="250" r="8" fill="#ffccbc"/>
    <circle cx="676" cy="254" r="8" fill="#e8a87a"/>
    <circle cx="704" cy="251" r="8" fill="#ffccbc"/>
    <circle cx="732" cy="257" r="8" fill="#e8a87a"/>
    <!-- Row 2 closer -->
    <circle cx="75" cy="272" r="9" fill="#e8a87a"/>
    <circle cx="108" cy="268" r="9" fill="#ffccbc"/>
    <circle cx="141" cy="274" r="9" fill="#e8a87a"/>
    <circle cx="174" cy="270" r="9" fill="#ffccbc"/>
    <circle cx="207" cy="275" r="9" fill="#e8a87a"/>
    <circle cx="240" cy="268" r="9" fill="#ffccbc"/>
    <circle cx="273" cy="273" r="9" fill="#e8a87a"/>
    <circle cx="306" cy="269" r="9" fill="#ffccbc"/>
    <circle cx="339" cy="275" r="9" fill="#e8a87a"/>
    <circle cx="372" cy="268" r="9" fill="#ffccbc"/>
    <circle cx="405" cy="274" r="9" fill="#e8a87a"/>
    <circle cx="438" cy="270" r="9" fill="#ffccbc"/>
    <circle cx="471" cy="276" r="9" fill="#e8a87a"/>
    <circle cx="504" cy="268" r="9" fill="#ffccbc"/>
    <circle cx="537" cy="273" r="9" fill="#e8a87a"/>
    <circle cx="570" cy="270" r="9" fill="#ffccbc"/>
    <circle cx="603" cy="276" r="9" fill="#e8a87a"/>
    <circle cx="636" cy="268" r="9" fill="#ffccbc"/>
    <circle cx="669" cy="274" r="9" fill="#e8a87a"/>
    <circle cx="702" cy="270" r="9" fill="#ffccbc"/>
    <circle cx="735" cy="275" r="9" fill="#e8a87a"/>
  </g>
  <!-- JESUS (center, teaching, standing elevated) -->
  <g transform="translate(345,115)">
    <ellipse cx="52" cy="220" rx="46" ry="10" fill="#558b2f" opacity="0.2"/>
    <path d="M8,58 Q4,172 2,210 Q52,220 102,210 Q98,172 94,58 Q76,40 52,37 Q28,40 8,58Z" fill="white"/>
    <path d="M4,150 Q52,160 100,150 Q98,190 52,196 Q6,190 4,150Z" fill="#e0e0e0" opacity="0.35"/>
    <rect x="4" y="118" width="92" height="9" rx="4" fill="#1565c0" opacity="0.45"/>
    <rect x="28" y="202" width="13" height="40" rx="5" fill="white" opacity="0.7"/>
    <rect x="53" y="202" width="13" height="40" rx="5" fill="#e0e0e0" opacity="0.7"/>
    <circle cx="52" cy="28" r="27" fill="#ffccbc"/>
    <path d="M27,16 Q52,0 77,16 Q75,6 52,3 Q29,6 27,16Z" fill="#5d4037"/>
    <circle cx="40" cy="22" r="4" fill="#5d4037"/>
    <circle cx="64" cy="22" r="4" fill="#5d4037"/>
    <circle cx="41" cy="21" r="1.5" fill="white"/>
    <circle cx="65" cy="21" r="1.5" fill="white"/>
    <path d="M36,36 Q52,48 68,36" stroke="#c62828" stroke-width="2.5" fill="none" stroke-linecap="round"/>
    <circle cx="27" cy="30" r="9" fill="#ef9a9a" opacity="0.4"/>
    <circle cx="77" cy="30" r="9" fill="#ef9a9a" opacity="0.4"/>
    <rect x="44" y="54" width="16" height="14" rx="4" fill="#ffccbc"/>
    <path d="M35,44 Q52,56 69,44 Q67,54 52,58 Q37,54 35,44Z" fill="#5d4037" opacity="0.7"/>
    <path d="M8,66 Q-22,52 -42,40" stroke="white" stroke-width="15" fill="none" stroke-linecap="round"/>
    <circle cx="-44" cy="38" r="12" fill="#ffccbc"/>
    <path d="M94,66 Q118,52 138,40" stroke="white" stroke-width="15" fill="none" stroke-linecap="round"/>
    <circle cx="140" cy="38" r="12" fill="#ffccbc"/>
  </g>
  <!-- People sitting on hillside closer -->
  <g opacity="0.8">
    <circle cx="155" cy="290" r="10" fill="#e8a87a"/>
    <circle cx="195" cy="286" r="10" fill="#ffccbc"/>
    <circle cx="235" cy="292" r="10" fill="#8d6e63"/>
    <circle cx="555" cy="288" r="10" fill="#ffccbc"/>
    <circle cx="595" cy="292" r="10" fill="#e8a87a"/>
    <circle cx="635" cy="286" r="10" fill="#ffccbc"/>
  </g>
</svg>
