<svg xmlns="http://www.w3.org/2000/svg" viewBox="0 0 800 380">
  <defs>
    <linearGradient id="jc5_sky" x1="0%" y1="0%" x2="0%" y2="100%">
      <stop offset="0%" style="stop-color:#0ea5e9"/>
      <stop offset="60%" style="stop-color:#7dd3fc"/>
      <stop offset="100%" style="stop-color:#bae6fd"/>
    </linearGradient>
    <linearGradient id="jc5_ground" x1="0%" y1="0%" x2="0%" y2="100%">
      <stop offset="0%" style="stop-color:#4ade80"/>
      <stop offset="100%" style="stop-color:#166534"/>
    </linearGradient>
  </defs>
  <rect width="800" height="380" fill="url(#jc5_sky)"/>
  <!-- Sun bright -->
  <circle cx="700" cy="60" r="50" fill="#fef9c3" opacity="0.6"/>
  <circle cx="700" cy="60" r="38" fill="#fef08a"/>
  <circle cx="700" cy="60" r="26" fill="#fde047"/>
  <!-- Clouds -->
  <ellipse cx="120" cy="48" rx="90" ry="35" fill="white" opacity="0.85"/>
  <ellipse cx="165" cy="37" rx="65" ry="28" fill="white"/>
  <ellipse cx="80" cy="43" rx="50" ry="26" fill="white" opacity="0.9"/>
  <ellipse cx="500" cy="45" rx="80" ry="30" fill="white" opacity="0.75"/>
  <!-- Ground colorful field -->
  <rect x="0" y="285" width="800" height="95" fill="url(#jc5_ground)"/>
  <!-- Many flowers -->
  <circle cx="30" cy="288" r="6" fill="#f472b6"/>
  <circle cx="70" cy="290" r="5" fill="#fde047"/>
  <circle cx="110" cy="287" r="6" fill="#fb923c"/>
  <circle cx="150" cy="289" r="5" fill="#a78bfa"/>
  <circle cx="190" cy="288" r="6" fill="#34d399"/>
  <circle cx="240" cy="290" r="5" fill="#f472b6"/>
  <circle cx="290" cy="287" r="6" fill="#fde047"/>
  <circle cx="340" cy="289" r="5" fill="#fb923c"/>
  <circle cx="400" cy="288" r="6" fill="#a78bfa"/>
  <circle cx="460" cy="290" r="5" fill="#f472b6"/>
  <circle cx="520" cy="287" r="6" fill="#34d399"/>
  <circle cx="580" cy="289" r="5" fill="#fde047"/>
  <circle cx="640" cy="288" r="6" fill="#fb923c"/>
  <circle cx="700" cy="290" r="5" fill="#a78bfa"/>
  <circle cx="755" cy="287" r="6" fill="#f472b6"/>
  <!-- Flower stems -->
  <line x1="30" y1="294" x2="30" y2="305" stroke="#166534" stroke-width="2"/>
  <line x1="110" y1="293" x2="110" y2="304" stroke="#166534" stroke-width="2"/>
  <line x1="240" y1="296" x2="240" y2="307" stroke="#166534" stroke-width="2"/>
  <line x1="400" y1="294" x2="400" y2="305" stroke="#166534" stroke-width="2"/>
  <line x1="580" y1="295" x2="580" y2="306" stroke="#166534" stroke-width="2"/>
  <line x1="755" y1="293" x2="755" y2="304" stroke="#166534" stroke-width="2"/>
  <!-- Tree left -->
  <rect x="45" y="200" width="20" height="105" rx="5" fill="#92400e"/>
  <circle cx="55" cy="175" r="55" fill="#22c55e"/>
  <circle cx="28" cy="193" r="35" fill="#16a34a"/>
  <circle cx="82" cy="190" r="35" fill="#16a34a"/>
  <!-- Tree right -->
  <rect x="730" y="205" width="20" height="100" rx="5" fill="#92400e"/>
  <circle cx="740" cy="178" r="52" fill="#22c55e"/>
  <circle cx="714" cy="196" r="33" fill="#16a34a"/>
  <circle cx="766" cy="193" r="33" fill="#16a34a"/>
  <!-- Jesus center with many children all around -->
  <rect x="360" y="215" width="80" height="120" rx="15" fill="#ffffff"/>
  <circle cx="400" cy="200" r="33" fill="#fde68a"/>
  <ellipse cx="400" cy="188" rx="33" ry="19" fill="#92400e"/>
  <rect x="376" y="200" width="11" height="36" rx="5" fill="#92400e"/>
  <rect x="413" y="200" width="11" height="36" rx="5" fill="#92400e"/>
  <!-- Jesus big smile -->
  <circle cx="389" cy="199" r="5" fill="#78350f"/>
  <circle cx="411" cy="199" r="5" fill="#78350f"/>
  <circle cx="382" cy="207" r="7" fill="#fca5a5" opacity="0.5"/>
  <circle cx="418" cy="207" r="7" fill="#fca5a5" opacity="0.5"/>
  <path d="M384,211 Q400,224 416,211" stroke="#78350f" stroke-width="3" fill="none"/>
  <!-- Jesus arms around children -->
  <line x1="360" y1="245" x2="315" y2="258" stroke="#fde68a" stroke-width="11" stroke-linecap="round"/>
  <line x1="440" y1="245" x2="485" y2="258" stroke="#fde68a" stroke-width="11" stroke-linecap="round"/>
  <!-- Children all around - many happy faces -->
  <!-- Child 1 left close - blue -->
  <rect x="268" y="252" width="35" height="75" rx="10" fill="#60a5fa"/>
  <circle cx="285" cy="241" r="19" fill="#fbbf24"/>
  <ellipse cx="285" cy="231" rx="19" ry="11" fill="#1d4ed8"/>
  <circle cx="278" cy="240" r="4.5" fill="#78350f"/>
  <circle cx="292" cy="240" r="4.5" fill="#78350f"/>
  <path d="M278,250 Q285,258 292,250" stroke="#78350f" stroke-width="2.5" fill="none"/>
  <circle cx="271" cy="247" r="6" fill="#fca5a5" opacity="0.5"/>
  <circle cx="299" cy="247" r="6" fill="#fca5a5" opacity="0.5"/>
  <!-- Child 2 left far - pink -->
  <rect x="170" y="258" width="32" height="70" rx="9" fill="#f472b6"/>
  <circle cx="186" cy="247" r="17" fill="#fde68a"/>
  <ellipse cx="186" cy="238" rx="17" ry="10" fill="#7c3aed"/>
  <circle cx="180" cy="246" r="4" fill="#78350f"/>
  <circle cx="192" cy="246" r="4" fill="#78350f"/>
  <path d="M180,256 Q186,263 192,256" stroke="#78350f" stroke-width="2" fill="none"/>
  <!-- Child 3 right close - green -->
  <rect x="498" y="255" width="35" height="73" rx="10" fill="#4ade80"/>
  <circle cx="515" cy="244" r="19" fill="#fbbf24"/>
  <ellipse cx="515" cy="234" rx="19" ry="11" fill="#b45309"/>
  <circle cx="508" cy="243" r="4.5" fill="#78350f"/>
  <circle cx="522" cy="243" r="4.5" fill="#78350f"/>
  <path d="M508,253 Q515,261 522,253" stroke="#78350f" stroke-width="2.5" fill="none"/>
  <!-- Child 4 right far - orange -->
  <rect x="598" y="260" width="32" height="68" rx="9" fill="#fb923c"/>
  <circle cx="614" cy="249" r="17" fill="#fde68a"/>
  <ellipse cx="614" cy="240" rx="17" ry="10" fill="#92400e"/>
  <circle cx="608" cy="248" r="4" fill="#78350f"/>
  <circle cx="620" cy="248" r="4" fill="#78350f"/>
  <path d="M608,258 Q614,265 620,258" stroke="#78350f" stroke-width="2" fill="none"/>
  <!-- Child 5 sitting at Jesus feet - purple -->
  <circle cx="400" cy="310" r="18" fill="#fbbf24"/>
  <ellipse cx="400" cy="300" rx="18" ry="10" fill="#7c3aed"/>
  <rect x="384" y="318" width="32" height="45" rx="9" fill="#c084fc"/>
  <circle cx="393" cy="308" r="4" fill="#78350f"/>
  <circle cx="407" cy="308" r="4" fill="#78350f"/>
  <path d="M393,316 Q400,322 407,316" stroke="#78350f" stroke-width="2" fill="none"/>
  <!-- Parents watching - emotional, some wiping tears -->
  <!-- Parent left -->
  <rect x="80" y="228" width="44" height="105" rx="10" fill="#3b82f6"/>
  <circle cx="102" cy="216" r="21" fill="#fde68a"/>
  <ellipse cx="102" cy="207" rx="21" ry="11" fill="#1d4ed8"/>
  <circle cx="95" cy="215" r="4" fill="#78350f"/>
  <circle cx="109" cy="215" r="4" fill="#78350f"/>
  <path d="M93,226 Q102,234 111,226" stroke="#78400e" stroke-width="2" fill="none"/>
  <!-- hand wiping eye -->
  <line x1="80" y1="248" x2="60" y2="232" stroke="#3b82f6" stroke-width="7" stroke-linecap="round"/>
  <!-- Parent right -->
  <rect x="668" y="230" width="44" height="103" rx="10" fill="#dc2626"/>
  <circle cx="690" cy="218" r="21" fill="#fde68a"/>
  <ellipse cx="690" cy="209" rx="21" ry="11" fill="#b91c1c"/>
  <circle cx="683" cy="217" r="4" fill="#78350f"/>
  <circle cx="697" cy="217" r="4" fill="#78350f"/>
  <path d="M681,228 Q690,236 699,228" stroke="#78350f" stroke-width="2" fill="none"/>
  <!-- tear drop -->
  <ellipse cx="683" cy="223" rx="2.5" ry="4" fill="#93c5fd" opacity="0.8"/>
</svg>
