<svg xmlns="http://www.w3.org/2000/svg" viewBox="0 0 800 380">
  <defs>
    <linearGradient id="skyJA3" x1="0" y1="0" x2="0" y2="1">
      <stop offset="0%" stop-color="#fff9c4"/>
      <stop offset="50%" stop-color="#ffe082"/>
      <stop offset="100%" stop-color="#ffcc80"/>
    </linearGradient>
  </defs>
  <rect width="800" height="380" fill="url(#skyJA3)"/>
  <!-- Open hillside -->
  <ellipse cx="200" cy="330" rx="300" ry="105" fill="#a5d6a7" opacity="0.5"/>
  <ellipse cx="660" cy="335" rx="270" ry="98" fill="#81c784" opacity="0.4"/>
  <rect x="0" y="302" width="800" height="78" fill="#c8e6c9"/>
  <!-- JESUS PRAYING (head bowed, hands raised, holding bread) -->
  <g transform="translate(335,110)">
    <ellipse cx="52" cy="228" rx="46" ry="10" fill="#558b2f" opacity="0.2"/>
    <path d="M8,62 Q4,180 2,218 Q52,228 102,218 Q98,180 94,62 Q76,44 52,41 Q28,44 8,62Z" fill="white"/>
    <path d="M6,160 Q52,170 100,160 Q98,200 52,206 Q6,200 6,160Z" fill="#e0e0e0" opacity="0.35"/>
    <rect x="6" y="124" width="88" height="9" rx="4" fill="#1565c0" opacity="0.45"/>
    <rect x="28" y="210" width="13" height="42" rx="5" fill="white" opacity="0.7"/>
    <rect x="53" y="210" width="13" height="42" rx="5" fill="#e0e0e0" opacity="0.7"/>
    <!-- Head bowed in prayer -->
    <circle cx="52" cy="30" r="27" fill="#ffccbc"/>
    <path d="M27,18 Q52,2 77,18 Q75,8 52,5 Q29,8 27,18Z" fill="#5d4037"/>
    <!-- Closed eyes (praying) -->
    <path d="M36,26 Q42,22 48,26" stroke="#5d4037" stroke-width="2.5" fill="none" stroke-linecap="round"/>
    <path d="M56,26 Q62,22 68,26" stroke="#5d4037" stroke-width="2.5" fill="none" stroke-linecap="round"/>
    <!-- Serene expression -->
    <path d="M36,38 Q52,46 68,38" stroke="#c62828" stroke-width="2" fill="none" stroke-linecap="round"/>
    <circle cx="27" cy="32" r="9" fill="#ef9a9a" opacity="0.35"/>
    <circle cx="77" cy="32" r="9" fill="#ef9a9a" opacity="0.35"/>
    <rect x="44" y="56" width="16" height="14" rx="4" fill="#ffccbc"/>
    <path d="M35,46 Q52,58 69,46 Q67,56 52,60 Q37,56 35,46Z" fill="#5d4037" opacity="0.7"/>
    <!-- Arms raised upward holding bread -->
    <path d="M8,70 Q-10,44 -15,18" stroke="white" stroke-width="15" fill="none" stroke-linecap="round"/>
    <circle cx="-16" cy="15" r="12" fill="#ffccbc"/>
    <path d="M94,70 Q112,44 118,18" stroke="white" stroke-width="15" fill="none" stroke-linecap="round"/>
    <circle cx="119" cy="15" r="12" fill="#ffccbc"/>
    <!-- Bread loaves in hands -->
    <ellipse cx="-18" cy="6" rx="15" ry="8" fill="#ffb300"/>
    <ellipse cx="121" cy="6" rx="15" ry="8" fill="#ffb300"/>
  </g>
  <!-- Golden divine light rays from bread -->
  <g stroke="#fff9c4" stroke-width="3" opacity="0.5">
    <line x1="320" y1="125" x2="200" y2="240"/>
    <line x1="325" y1="118" x2="260" y2="210"/>
    <line x1="330" y1="115" x2="320" y2="200"/>
    <line x1="472" y1="125" x2="580" y2="240"/>
    <line x1="476" y1="118" x2="540" y2="210"/>
    <line x1="470" y1="115" x2="480" y2="200"/>
  </g>
  <!-- Divine glow around hands -->
  <circle cx="320" cy="125" r="25" fill="#fff9c4" opacity="0.4"/>
  <circle cx="473" cy="125" r="25" fill="#fff9c4" opacity="0.4"/>
  <!-- DISCIPLES watching in awe (row of 4) -->
  <g transform="translate(80,200)">
    <path d="M2,40 L0,108 L26,108 L28,40 Q14,30 12,28 Q6,30 2,40Z" fill="#546e7a"/>
    <circle cx="14" cy="16" r="18" fill="#e8a87a"/>
    <path d="M-1,8 Q14,-4 29,8 Q27,2 14,-1 Q1,2 -1,8Z" fill="#3e2723"/>
    <circle cx="6" cy="12" r="3" fill="#3e2723"/>
    <circle cx="22" cy="12" r="3" fill="#3e2723"/>
    <path d="M5,24 Q14,30 23,24" stroke="#c62828" stroke-width="2" fill="none"/>
  </g>
  <g transform="translate(148,205)">
    <path d="M2,38 L0,102 L25,102 L27,38 Q13,28 11,26 Q5,28 2,38Z" fill="#ef6c00"/>
    <circle cx="13" cy="14" r="17" fill="#ffccbc"/>
    <path d="M-1,7 Q13,-4 27,7 Q25,1 13,-1 Q1,1 -1,7Z" fill="#5d4037"/>
    <circle cx="5" cy="11" r="3" fill="#5d4037"/>
    <circle cx="21" cy="11" r="3" fill="#5d4037"/>
    <path d="M5,22 Q13,28 21,22" stroke="#c62828" stroke-width="2" fill="none"/>
  </g>
  <g transform="translate(560,200)">
    <path d="M2,40 L0,108 L26,108 L28,40 Q14,30 12,28 Q6,30 2,40Z" fill="#26a69a"/>
    <circle cx="14" cy="16" r="18" fill="#e8a87a"/>
    <path d="M-1,8 Q14,-4 29,8 Q27,2 14,-1 Q1,2 -1,8Z" fill="#4e342e"/>
    <circle cx="6" cy="12" r="3" fill="#4e342e"/>
    <circle cx="22" cy="12" r="3" fill="#4e342e"/>
    <path d="M5,24 Q14,30 23,24" stroke="#c62828" stroke-width="2" fill="none"/>
  </g>
  <g transform="translate(628,205)">
    <path d="M2,38 L0,102 L25,102 L27,38 Q13,28 11,26 Q5,28 2,38Z" fill="#8e24aa"/>
    <circle cx="13" cy="14" r="17" fill="#ffccbc"/>
    <path d="M-1,7 Q13,-4 27,7 Q25,1 13,-1 Q1,1 -1,7Z" fill="#5d4037"/>
    <circle cx="5" cy="11" r="3" fill="#5d4037"/>
    <circle cx="21" cy="11" r="3" fill="#5d4037"/>
    <path d="M5,22 Q13,28 21,22" stroke="#c62828" stroke-width="2" fill="none"/>
  </g>
  <!-- Sparkles of miracle -->
  <g fill="#fff176" opacity="0.8">
    <circle cx="395" cy="165" r="5"/>
    <polygon points="400,140 403,150 413,150 405,156 408,166 400,160 392,166 395,156 387,150 397,150"/>
    <circle cx="370" cy="175" r="3.5"/><circle cx="430" cy="172" r="3.5"/>
  </g>
</svg>
