<svg xmlns="http://www.w3.org/2000/svg" viewBox="0 0 800 380">
  <defs>
    <linearGradient id="skyJAT2" x1="0" y1="0" x2="0" y2="1">
      <stop offset="0%" stop-color="#37474f"/>
      <stop offset="40%" stop-color="#546e7a"/>
      <stop offset="100%" stop-color="#78909c"/>
    </linearGradient>
    <linearGradient id="waterJAT2" x1="0" y1="0" x2="0" y2="1">
      <stop offset="0%" stop-color="#0d47a1"/>
      <stop offset="100%" stop-color="#01579b"/>
    </linearGradient>
  </defs>
  <rect width="800" height="380" fill="url(#skyJAT2)"/>
  <!-- Dark storm clouds -->
  <ellipse cx="200" cy="80" rx="130" ry="65" fill="#263238" opacity="0.9"/>
  <ellipse cx="150" cy="95" rx="90" ry="50" fill="#1c313a" opacity="0.95"/>
  <ellipse cx="260" cy="85" rx="100" ry="55" fill="#263238" opacity="0.85"/>
  <ellipse cx="500" cy="70" rx="140" ry="68" fill="#37474f" opacity="0.9"/>
  <ellipse cx="450" cy="85" rx="95" ry="52" fill="#263238" opacity="0.95"/>
  <ellipse cx="580" cy="78" rx="110" ry="58" fill="#1c313a" opacity="0.9"/>
  <ellipse cx="700" cy="90" rx="120" ry="60" fill="#263238" opacity="0.85"/>
  <!-- Lightning -->
  <polyline points="280,100 268,140 278,140 262,190" stroke="#fff176" stroke-width="3" fill="none" opacity="0.9"/>
  <polyline points="560,85 548,130 558,130 542,178" stroke="#fff176" stroke-width="2.5" fill="none" opacity="0.85"/>
  <!-- Rain streaks -->
  <g stroke="#81d4fa" stroke-width="1.5" opacity="0.5">
    <line x1="50" y1="140" x2="40" y2="200"/><line x1="100" y1="130" x2="90" y2="190"/>
    <line x1="160" y1="145" x2="150" y2="205"/><line x1="220" y1="135" x2="210" y2="195"/>
    <line x1="280" y1="150" x2="270" y2="210"/><line x1="340" y1="140" x2="330" y2="200"/>
    <line x1="400" y1="148" x2="390" y2="208"/><line x1="460" y1="138" x2="450" y2="198"/>
    <line x1="520" y1="152" x2="510" y2="212"/><line x1="580" y1="142" x2="570" y2="202"/>
    <line x1="640" y1="148" x2="630" y2="208"/><line x1="700" y1="136" x2="690" y2="196"/>
    <line x1="760" y1="144" x2="750" y2="204"/>
    <line x1="75" y1="165" x2="65" y2="225"/><line x1="135" y1="158" x2="125" y2="218"/>
    <line x1="195" y1="172" x2="185" y2="232"/><line x1="255" y1="162" x2="245" y2="222"/>
  </g>
  <!-- Rough waves -->
  <rect x="0" y="268" width="800" height="112" fill="url(#waterJAT2)"/>
  <path d="M0,272 Q50,258 100,272 Q150,286 200,272 Q250,258 300,272 Q350,286 400,272 Q450,258 500,272 Q550,286 600,272 Q650,258 700,272 Q750,286 800,272" fill="none" stroke="#1565c0" stroke-width="5" opacity="0.7"/>
  <path d="M0,288 Q60,274 120,288 Q180,302 240,288 Q300,274 360,288 Q420,302 480,288 Q540,274 600,288 Q660,302 720,288 Q760,280 800,288" fill="#0d47a1" opacity="0.5"/>
  <!-- Boat tossing -->
  <g transform="translate(130,210) rotate(-8,240,80)">
    <path d="M0,55 Q240,32 480,55 Q470,95 240,103 Q10,95 0,55Z" fill="#8d6e63"/>
    <path d="M10,60 Q240,38 470,60 Q460,88 240,94 Q20,88 10,60Z" fill="#a1887f"/>
    <!-- Mast leaning -->
    <rect x="220" y="-70" width="8" height="125" rx="4" fill="#6d4c41" transform="rotate(5,224,55)"/>
    <!-- Sail torn -->
    <path d="M228,-10 Q278,-48 225,-68 Q185,-35 228,-10Z" fill="white" opacity="0.7"/>
    <!-- Frightened disciples -->
    <g transform="translate(50,22)">
      <path d="M0,30 L-1,65 L20,65 L21,30 Q10,22 8,20 Q4,22 0,30Z" fill="#546e7a"/>
      <circle cx="10" cy="10" r="12" fill="#e8a87a"/>
      <!-- Scared eyes wide -->
      <circle cx="5" cy="8" r="3.5" fill="#3e2723"/>
      <circle cx="15" cy="8" r="3.5" fill="#3e2723"/>
      <circle cx="5.5" cy="7.5" r="1.5" fill="white"/>
      <circle cx="15.5" cy="7.5" r="1.5" fill="white"/>
      <!-- Scared mouth open -->
      <path d="M4,18 Q10,14 16,18" stroke="#c62828" stroke-width="2" fill="none"/>
    </g>
    <g transform="translate(130,16)">
      <path d="M0,30 L-1,68 L20,68 L21,30 Q10,22 8,20 Q4,22 0,30Z" fill="#ef6c00"/>
      <circle cx="10" cy="10" r="12" fill="#ffccbc"/>
      <circle cx="5" cy="8" r="3.5" fill="#4e342e"/>
      <circle cx="15" cy="8" r="3.5" fill="#4e342e"/>
      <circle cx="5.5" cy="7.5" r="1.5" fill="white"/>
      <circle cx="15.5" cy="7.5" r="1.5" fill="white"/>
      <path d="M4,18 Q10,14 16,18" stroke="#c62828" stroke-width="2" fill="none"/>
    </g>
    <g transform="translate(320,18)">
      <path d="M0,30 L-1,66 L20,66 L21,30 Q10,22 8,20 Q4,22 0,30Z" fill="#26a69a"/>
      <circle cx="10" cy="10" r="12" fill="#e8a87a"/>
      <circle cx="5" cy="8" r="3.5" fill="#3e2723"/>
      <circle cx="15" cy="8" r="3.5" fill="#3e2723"/>
      <circle cx="5.5" cy="7.5" r="1.5" fill="white"/>
      <circle cx="15.5" cy="7.5" r="1.5" fill="white"/>
      <path d="M4,18 Q10,14 16,18" stroke="#c62828" stroke-width="2" fill="none"/>
    </g>
    <!-- JESUS still sleeping -->
    <g transform="translate(395,32)">
      <ellipse cx="32" cy="42" rx="40" ry="10" fill="#ffe082"/>
      <path d="M0,30 Q32,16 64,20 Q66,34 64,38 Q32,42 0,38Z" fill="white"/>
      <circle cx="5" cy="26" r="18" fill="#ffccbc"/>
      <path d="M-8,17 Q5,6 18,17 Q16,10 5,7 Q-6,10 -8,17Z" fill="#5d4037"/>
      <path d="M-2,22 Q3,18 9,22" stroke="#5d4037" stroke-width="2" fill="none" stroke-linecap="round"/>
      <path d="M1,22 Q7,18 13,22" stroke="#5d4037" stroke-width="2" fill="none" stroke-linecap="round"/>
      <path d="M-3,32 Q5,37 13,32" stroke="#c62828" stroke-width="1.5" fill="none" stroke-linecap="round"/>
    </g>
  </g>
</svg>
