<svg xmlns="http://www.w3.org/2020/svg" viewBox="0 0 800 380">
  <defs>
    <linearGradient id="skyJAT5" x1="0" y1="0" x2="0" y2="1">
      <stop offset="0%" stop-color="#b3e5fc"/>
      <stop offset="45%" stop-color="#e1f5fe"/>
      <stop offset="100%" stop-color="#fff9c4"/>
    </linearGradient>
    <linearGradient id="waterJAT5" x1="0" y1="0" x2="0" y2="1">
      <stop offset="0%" stop-color="#4dd0e1"/>
      <stop offset="100%" stop-color="#0097a7"/>
    </linearGradient>
  </defs>
  <rect width="800" height="380" fill="url(#skyJAT5)"/>
  <!-- Clearing sky, golden light -->
  <circle cx="400" cy="40" r="60" fill="#fff9c4" opacity="0.6"/>
  <!-- Light rays from above -->
  <g stroke="#fff9c4" stroke-width="4" opacity="0.45">
    <line x1="400" y1="100" x2="200" y2="250"/>
    <line x1="400" y1="100" x2="310" y2="265"/>
    <line x1="400" y1="100" x2="400" y2="270"/>
    <line x1="400" y1="100" x2="490" y2="265"/>
    <line x1="400" y1="100" x2="600" y2="250"/>
  </g>
  <!-- Remaining clouds now white/peaceful -->
  <ellipse cx="130" cy="80" rx="90" ry="38" fill="white" opacity="0.7"/>
  <ellipse cx="90" cy="88" rx="55" ry="26" fill="white" opacity="0.8"/>
  <ellipse cx="670" cy="75" rx="95" ry="40" fill="white" opacity="0.7"/>
  <ellipse cx="710" cy="84" rx="60" ry="28" fill="white" opacity="0.75"/>
  <!-- Calm water -->
  <rect x="0" y="268" width="800" height="112" fill="url(#waterJAT5)"/>
  <path d="M0,272 Q200,265 400,272 Q600,279 800,272" fill="none" stroke="#80deea" stroke-width="3" opacity="0.6"/>
  <path d="M0,288 Q200,281 400,288 Q600,295 800,288" fill="none" stroke="#4dd0e1" stroke-width="2" opacity="0.4"/>
  <!-- Sun reflection in water -->
  <ellipse cx="400" cy="290" rx="55" ry="12" fill="#fff9c4" opacity="0.3"/>
  <!-- BOAT, now calm -->
  <g transform="translate(155,200)">
    <path d="M0,60 Q240,40 480,60 Q470,100 240,108 Q10,100 0,60Z" fill="#8d6e63"/>
    <path d="M10,65 Q240,46 470,65 Q460,92 240,98 Q20,92 10,65Z" fill="#a1887f"/>
    <!-- Mast upright -->
    <rect x="220" y="-75" width="8" height="135" rx="4" fill="#6d4c41"/>
    <!-- Sail calm -->
    <path d="M228,0 Q285,-38 228,-75 Q178,-38 228,0Z" fill="white" opacity="0.9"/>
    <!-- JESUS standing calm in center -->
    <g transform="translate(186,10)">
      <path d="M4,42 Q2,115 0,138 Q36,146 72,138 Q70,115 68,42 Q55,28 36,25 Q17,28 4,42Z" fill="white"/>
      <circle cx="36" cy="18" r="22" fill="#ffccbc"/>
      <path d="M16,9 Q36,-4 56,9 Q54,2 36,-1 Q18,2 16,9Z" fill="#5d4037"/>
      <circle cx="26" cy="13" r="3.5" fill="#5d4037"/>
      <circle cx="46" cy="13" r="3.5" fill="#5d4037"/>
      <circle cx="27" cy="12" r="1.3" fill="white"/>
      <circle cx="47" cy="12" r="1.3" fill="white"/>
      <!-- Peaceful smile -->
      <path d="M22,26 Q36,36 50,26" stroke="#c62828" stroke-width="2.5" fill="none" stroke-linecap="round"/>
      <circle cx="15" cy="20" r="7" fill="#ef9a9a" opacity="0.4"/>
      <circle cx="57" cy="20" r="7" fill="#ef9a9a" opacity="0.4"/>
      <path d="M22,34 Q36,44 50,34 Q48,42 36,46 Q24,42 22,34Z" fill="#5d4037" opacity="0.6"/>
      <path d="M4,48 Q-10,62 -8,86" stroke="white" stroke-width="13" fill="none" stroke-linecap="round"/>
      <circle cx="-7" cy="88" r="10" fill="#ffccbc"/>
      <path d="M68,48 Q80,62 78,86" stroke="white" stroke-width="13" fill="none" stroke-linecap="round"/>
      <circle cx="77" cy="88" r="10" fill="#ffccbc"/>
    </g>
    <!-- Amazed disciples in awe -->
    <g transform="translate(50,22)">
      <path d="M0,30 L-1,68 L20,68 L21,30 Q10,22 8,20 Q4,22 0,30Z" fill="#546e7a"/>
      <circle cx="10" cy="10" r="13" fill="#e8a87a"/>
      <circle cx="4" cy="8" r="3.5" fill="#3e2723"/>
      <circle cx="16" cy="8" r="3.5" fill="#3e2723"/>
      <path d="M3,18 Q10,24 17,18" stroke="#c62828" stroke-width="2" fill="none" stroke-linecap="round"/>
    </g>
    <g transform="translate(105,16)">
      <path d="M0,30 L-1,72 L20,72 L21,30 Q10,22 8,20 Q4,22 0,30Z" fill="#ef6c00"/>
      <circle cx="10" cy="10" r="13" fill="#ffccbc"/>
      <circle cx="4" cy="8" r="3.5" fill="#4e342e"/>
      <circle cx="16" cy="8" r="3.5" fill="#4e342e"/>
      <path d="M3,18 Q10,24 17,18" stroke="#c62828" stroke-width="2" fill="none" stroke-linecap="round"/>
    </g>
    <g transform="translate(340,20)">
      <path d="M0,30 L-1,68 L20,68 L21,30 Q10,22 8,20 Q4,22 0,30Z" fill="#26a69a"/>
      <circle cx="10" cy="10" r="13" fill="#e8a87a"/>
      <circle cx="4" cy="8" r="3.5" fill="#3e2723"/>
      <circle cx="16" cy="8" r="3.5" fill="#3e2723"/>
      <path d="M3,18 Q10,24 17,18" stroke="#c62828" stroke-width="2" fill="none" stroke-linecap="round"/>
    </g>
    <g transform="translate(398,22)">
      <path d="M0,30 L-1,66 L20,66 L21,30 Q10,22 8,20 Q4,22 0,30Z" fill="#8e24aa"/>
      <circle cx="10" cy="10" r="13" fill="#ffccbc"/>
      <circle cx="4" cy="8" r="3.5" fill="#5d4037"/>
      <circle cx="16" cy="8" r="3.5" fill="#5d4037"/>
      <path d="M3,18 Q10,24 17,18" stroke="#c62828" stroke-width="2" fill="none" stroke-linecap="round"/>
    </g>
  </g>
  <!-- Wonder sparkles -->
  <g fill="#fff176" opacity="0.8">
    <circle cx="270" cy="200" r="4"/><circle cx="540" cy="198" r="4"/>
    <circle cx="400" cy="185" r="3.5"/><circle cx="280" cy="215" r="3"/>
    <polygon points="398,168 401,176 409,176 403,181 405,189 398,184 391,189 393,181 387,176 395,176"/>
  </g>
</svg>
