<svg xmlns="http://www.w3.org/2000/svg" viewBox="0 0 800 380">
  <defs>
    <linearGradient id="skyJP5" x1="0" y1="0" x2="0" y2="1">
      <stop offset="0%" stop-color="#fff9c4"/>
      <stop offset="55%" stop-color="#ffe082"/>
      <stop offset="100%" stop-color="#ffcc80"/>
    </linearGradient>
  </defs>
  <rect width="800" height="380" fill="url(#skyJP5)"/>
  <!-- Hills -->
  <ellipse cx="180" cy="320" rx="300" ry="110" fill="#a5d6a7" opacity="0.5"/>
  <ellipse cx="650" cy="325" rx="260" ry="100" fill="#81c784" opacity="0.4"/>
  <!-- Ground path -->
  <rect x="0" y="295" width="800" height="85" fill="#ffcc80"/>
  <path d="M0,300 Q200,292 400,300 Q600,308 800,300" fill="none" stroke="#ffa726" stroke-width="2" opacity="0.4"/>
  <!-- Road path -->
  <path d="M120,380 Q400,310 680,380" fill="none" stroke="#ffe082" stroke-width="18" opacity="0.5"/>
  <!-- JESUS (center, leading, white robe) -->
  <g transform="translate(360,130)">
    <ellipse cx="42" cy="210" rx="38" ry="9" fill="#e65100" opacity="0.2"/>
    <path d="M6,56 Q3,162 1,200 Q42,210 83,200 Q80,162 77,56 Q62,38 42,35 Q22,38 6,56Z" fill="white"/>
    <path d="M4,145 Q42,155 82,145 Q80,182 42,188 Q4,182 4,145Z" fill="#e0e0e0" opacity="0.35"/>
    <rect x="4" y="112" width="78" height="9" rx="4" fill="#1565c0" opacity="0.45"/>
    <rect x="22" y="194" width="12" height="38" rx="5" fill="white" opacity="0.7"/>
    <rect x="44" y="194" width="12" height="38" rx="5" fill="#e0e0e0" opacity="0.7"/>
    <!-- Head -->
    <circle cx="42" cy="27" r="26" fill="#ffccbc"/>
    <path d="M19,15 Q42,-1 65,15 Q63,5 42,2 Q21,5 19,15Z" fill="#5d4037"/>
    <circle cx="30" cy="21" r="4" fill="#5d4037"/>
    <circle cx="54" cy="21" r="4" fill="#5d4037"/>
    <circle cx="31" cy="20" r="1.5" fill="white"/>
    <circle cx="55" cy="20" r="1.5" fill="white"/>
    <path d="M27,35 Q42,47 57,35" stroke="#c62828" stroke-width="2.5" fill="none" stroke-linecap="round"/>
    <circle cx="20" cy="29" r="9" fill="#ef9a9a" opacity="0.4"/>
    <circle cx="64" cy="29" r="9" fill="#ef9a9a" opacity="0.4"/>
    <rect x="34" y="52" width="16" height="13" rx="4" fill="#ffccbc"/>
    <path d="M27,44 Q42,56 57,44 Q55,54 42,58 Q29,54 27,44Z" fill="#5d4037" opacity="0.7"/>
    <!-- Arms open to group -->
    <path d="M6,62 Q-26,74 -55,65" stroke="white" stroke-width="14" fill="none" stroke-linecap="round"/>
    <circle cx="-57" cy="64" r="11" fill="#ffccbc"/>
    <path d="M77,62 Q105,74 132,65" stroke="white" stroke-width="14" fill="none" stroke-linecap="round"/>
    <circle cx="134" cy="64" r="11" fill="#ffccbc"/>
  </g>
  <!-- GROUP of disciples (4 figures, various colors) -->
  <g transform="translate(530,185)">
    <!-- Disciple 1 -->
    <path d="M2,40 L0,110 L26,110 L28,40 Q14,28 12,26 Q6,28 2,40Z" fill="#546e7a"/>
    <circle cx="14" cy="16" r="18" fill="#e8a87a"/>
    <path d="M-1,7 Q14,-5 29,7 Q27,0 14,-2 Q1,0 -1,7Z" fill="#3e2723"/>
    <circle cx="6" cy="12" r="3" fill="#3e2723"/>
    <circle cx="22" cy="12" r="3" fill="#3e2723"/>
    <path d="M6,22 Q14,28 22,22" stroke="#c62828" stroke-width="2" fill="none"/>
  </g>
  <g transform="translate(590,192)">
    <path d="M2,38 L0,104 L25,104 L27,38 Q13,26 11,24 Q5,26 2,38Z" fill="#ef6c00"/>
    <circle cx="13" cy="15" r="17" fill="#ffccbc"/>
    <path d="M-1,7 Q13,-4 27,7 Q25,0 13,-2 Q1,0 -1,7Z" fill="#4e342e"/>
    <circle cx="5" cy="11" r="3" fill="#4e342e"/>
    <circle cx="21" cy="11" r="3" fill="#4e342e"/>
    <path d="M5,21 Q13,27 21,21" stroke="#c62828" stroke-width="2" fill="none"/>
  </g>
  <g transform="translate(645,188)">
    <path d="M2,40 L0,112 L26,112 L28,40 Q14,28 12,26 Q6,28 2,40Z" fill="#8e24aa"/>
    <circle cx="14" cy="16" r="18" fill="#e8a87a"/>
    <path d="M-1,7 Q14,-5 29,7 Q27,0 14,-2 Q1,0 -1,7Z" fill="#3e2723"/>
    <circle cx="6" cy="12" r="3" fill="#3e2723"/>
    <circle cx="22" cy="12" r="3" fill="#3e2723"/>
    <path d="M6,22 Q14,28 22,22" stroke="#c62828" stroke-width="2" fill="none"/>
  </g>
  <g transform="translate(700,195)">
    <path d="M2,36 L0,100 L24,100 L26,36 Q12,26 10,24 Q4,26 2,36Z" fill="#26a69a"/>
    <circle cx="13" cy="14" r="16" fill="#ffccbc"/>
    <path d="M-1,6 Q13,-4 27,6 Q25,0 13,-2 Q1,0 -1,6Z" fill="#5d4037"/>
    <circle cx="5" cy="10" r="3" fill="#5d4037"/>
    <circle cx="21" cy="10" r="3" fill="#5d4037"/>
    <path d="M5,20 Q13,26 21,20" stroke="#c62828" stroke-width="2" fill="none"/>
  </g>
  <!-- Second group left side -->
  <g transform="translate(165,190)">
    <path d="M2,40 L0,110 L26,110 L28,40 Q14,28 12,26 Q6,28 2,40Z" fill="#795548"/>
    <circle cx="14" cy="16" r="18" fill="#e8a87a"/>
    <path d="M-1,7 Q14,-5 29,7 Q27,0 14,-2 Q1,0 -1,7Z" fill="#4e342e"/>
    <circle cx="6" cy="12" r="3" fill="#4e342e"/>
    <circle cx="22" cy="12" r="3" fill="#4e342e"/>
    <path d="M6,22 Q14,28 22,22" stroke="#c62828" stroke-width="2" fill="none"/>
  </g>
  <g transform="translate(220,197)">
    <path d="M2,38 L0,104 L25,104 L27,38 Q13,26 11,24 Q5,26 2,38Z" fill="#c62828"/>
    <circle cx="13" cy="15" r="17" fill="#ffccbc"/>
    <path d="M-1,7 Q13,-4 27,7 Q25,0 13,-2 Q1,0 -1,7Z" fill="#5d4037"/>
    <circle cx="5" cy="11" r="3" fill="#5d4037"/>
    <circle cx="21" cy="11" r="3" fill="#5d4037"/>
    <path d="M5,21 Q13,27 21,21" stroke="#c62828" stroke-width="2" fill="none"/>
  </g>
  <!-- Light rays -->
  <g stroke="#fff9c4" stroke-width="2" opacity="0.25">
    <line x1="400" y1="130" x2="200" y2="260"/>
    <line x1="402" y1="128" x2="400" y2="295"/>
    <line x1="404" y1="130" x2="600" y2="260"/>
  </g>
  <!-- Joy sparkles -->
  <g fill="#fff176" opacity="0.7">
    <circle cx="310" cy="180" r="4"/><circle cx="490" cy="175" r="4"/>
    <circle cx="400" cy="165" r="3.5"/>
  </g>
</svg>
