<svg xmlns="http://www.w3.org/2000/svg" viewBox="0 0 800 380">
  <defs>
    <linearGradient id="skyJC5" x1="0" y1="0" x2="0" y2="1">
      <stop offset="0%" stop-color="#fff9c4"/>
      <stop offset="50%" stop-color="#ffe082"/>
      <stop offset="100%" stop-color="#ffcc80"/>
    </linearGradient>
  </defs>
  <rect width="800" height="380" fill="url(#skyJC5)"/>
  <!-- Pyramids background -->
  <polygon points="500,280 580,130 660,280" fill="#ffb300" opacity="0.75"/>
  <polygon points="620,280 690,158 760,280" fill="#ff8f00" opacity="0.6"/>
  <!-- Ground -->
  <rect x="0" y="280" width="800" height="100" fill="#ffcc80"/>
  <!-- Column/throne area -->
  <rect x="170" y="160" width="18" height="128" rx="4" fill="#ffb300" opacity="0.7"/>
  <rect x="215" y="150" width="18" height="138" rx="4" fill="#ffa000" opacity="0.6"/>
  <rect x="155" y="148" width="85" height="18" rx="4" fill="#ff8f00" opacity="0.7"/>
  <!-- Throne -->
  <rect x="145" y="168" width="105" height="88" rx="8" fill="#ff8f00" opacity="0.8"/>
  <rect x="152" y="175" width="91" height="75" rx="6" fill="#ffe082"/>
  <!-- JOSE as governor (on throne, gold/blue robes) -->
  <g transform="translate(162,120)">
    <ellipse cx="42" cy="138" rx="36" ry="8" fill="#e65100" opacity="0.2"/>
    <!-- Egyptian-style robe -->
    <path d="M5,50 Q2,125 -2,138 Q42,148 86,138 Q82,125 80,50 Q64,34 42,31 Q22,34 5,50Z" fill="#1565c0"/>
    <rect x="4" y="90" width="78" height="9" rx="4" fill="#ffd54f"/>
    <rect x="24" y="130" width="11" height="35" rx="5" fill="#1565c0" opacity="0.7"/>
    <rect x="43" y="130" width="11" height="35" rx="5" fill="#0d47a1" opacity="0.7"/>
    <!-- Head -->
    <circle cx="42" cy="24" r="24" fill="#ffccbc"/>
    <!-- Egyptian collar/necklace -->
    <path d="M20,48 Q42,56 64,48 Q62,62 42,66 Q22,62 20,48Z" fill="#ffd54f" opacity="0.8"/>
    <path d="M22,14 Q42,-3 62,14 Q60,5 42,2 Q24,5 22,14Z" fill="#4e342e"/>
    <circle cx="31" cy="18" r="4" fill="#4e342e"/>
    <circle cx="53" cy="18" r="4" fill="#4e342e"/>
    <circle cx="32" cy="17" r="1.5" fill="white"/>
    <circle cx="54" cy="17" r="1.5" fill="white"/>
    <!-- Kind warm smile -->
    <path d="M28,33 Q42,44 56,33" stroke="#c62828" stroke-width="2.5" fill="none" stroke-linecap="round"/>
    <circle cx="23" cy="27" r="8" fill="#ef9a9a" opacity="0.4"/>
    <circle cx="61" cy="27" r="8" fill="#ef9a9a" opacity="0.4"/>
    <rect x="35" y="46" width="14" height="12" rx="4" fill="#ffccbc"/>
    <!-- Arms open embracing -->
    <path d="M5,58 Q-18,72 -22,98" stroke="#1565c0" stroke-width="14" fill="none" stroke-linecap="round"/>
    <circle cx="-21" cy="100" r="11" fill="#ffccbc"/>
    <path d="M80,58 Q102,72 106,98" stroke="#1565c0" stroke-width="14" fill="none" stroke-linecap="round"/>
    <circle cx="106" cy="100" r="11" fill="#ffccbc"/>
  </g>
  <!-- BROTHERS bowing (3 simplified figures kneeling) -->
  <g transform="translate(295,218)">
    <!-- Brother 1 bowing -->
    <ellipse cx="35" cy="62" rx="28" ry="8" fill="#e65100" opacity="0.2"/>
    <path d="M8,10 Q8,45 5,62 Q35,68 65,62 Q60,45 62,10 Q50,2 35,0 Q20,2 8,10Z" fill="#ef6c00"/>
    <circle cx="35" cy="-14" r="18" fill="#e8a87a"/>
    <path d="M18,-22 Q35,-34 52,-22 Q50,-28 35,-30 Q20,-28 18,-22Z" fill="#3e2723"/>
    <!-- Head bowing down -->
    <path d="M35,0 Q35,-12 35,-14" stroke="#e8a87a" stroke-width="14" fill="none" stroke-linecap="round"/>
  </g>
  <g transform="translate(390,225)">
    <ellipse cx="32" cy="55" rx="26" ry="7" fill="#e65100" opacity="0.2"/>
    <path d="M6,10 Q6,42 4,55 Q32,62 60,55 Q58,42 58,10 Q48,2 32,0 Q18,2 6,10Z" fill="#26a69a"/>
    <circle cx="32" cy="-12" r="18" fill="#ffccbc"/>
    <path d="M16,-20 Q32,-32 48,-20 Q46,-26 32,-28 Q18,-26 16,-20Z" fill="#5d4037"/>
    <path d="M32,0 Q32,-10 32,-12" stroke="#ffccbc" stroke-width="14" fill="none" stroke-linecap="round"/>
  </g>
  <g transform="translate(475,218)">
    <ellipse cx="32" cy="62" rx="26" ry="8" fill="#e65100" opacity="0.2"/>
    <path d="M6,10 Q6,48 4,62 Q32,68 60,62 Q58,48 58,10 Q48,2 32,0 Q18,2 6,10Z" fill="#8e24aa"/>
    <circle cx="32" cy="-14" r="18" fill="#e8a87a"/>
    <path d="M16,-22 Q32,-34 48,-22 Q46,-28 32,-30 Q18,-28 16,-22Z" fill="#3e2723"/>
    <path d="M32,0 Q32,-12 32,-14" stroke="#e8a87a" stroke-width="14" fill="none" stroke-linecap="round"/>
  </g>
  <!-- Sparkles of reunion joy -->
  <g fill="#fff176" opacity="0.75">
    <circle cx="255" cy="200" r="4"/><circle cx="590" cy="195" r="4"/>
    <circle cx="420" cy="178" r="3.5"/><circle cx="260" cy="245" r="2.5"/>
  </g>
</svg>
