<svg xmlns="http://www.w3.org/2000/svg" viewBox="0 0 800 380">
  <defs>
    <linearGradient id="skyBM4" x1="0" y1="0" x2="0" y2="1">
      <stop offset="0%" stop-color="#b3e5fc"/>
      <stop offset="60%" stop-color="#80deea"/>
      <stop offset="100%" stop-color="#4dd0e1"/>
    </linearGradient>
  </defs>
  <rect width="800" height="380" fill="url(#skyBM4)"/>
  <!-- Sun -->
  <circle cx="680" cy="68" r="44" fill="#fff9c4" opacity="0.85"/>
  <!-- Reeds background -->
  <g fill="#558b2f" opacity="0.7">
    <rect x="580" y="150" width="8" height="200" rx="4"/>
    <ellipse cx="584" cy="148" rx="13" ry="26" fill="#689f38"/>
    <rect x="610" y="170" width="7" height="180" rx="3"/>
    <ellipse cx="613" cy="168" rx="11" ry="22" fill="#7cb342"/>
    <rect x="636" y="145" width="9" height="205" rx="4"/>
    <ellipse cx="640" cy="143" rx="14" ry="28" fill="#558b2f"/>
    <rect x="720" y="180" width="7" height="170" rx="3"/>
    <ellipse cx="723" cy="178" rx="11" ry="20" fill="#7cb342"/>
  </g>
  <!-- River bank / ground -->
  <rect x="0" y="310" width="800" height="70" fill="#ffcc80"/>
  <!-- River water -->
  <rect x="0" y="270" width="800" height="60" fill="url(#skyBM4)" opacity="0.7"/>
  <path d="M0,275 Q200,268 400,275 Q600,282 800,275" fill="none" stroke="#80deea" stroke-width="2.5" opacity="0.5"/>
  <!-- Basket in river near bank -->
  <g transform="translate(340,262)">
    <ellipse cx="45" cy="24" rx="50" ry="15" fill="#8d6e63" opacity="0.5"/>
    <path d="M2,12 Q45,-5 88,12 Q86,30 45,34 Q4,30 2,12Z" fill="#a1887f"/>
    <path d="M10,15 Q45,7 80,15" stroke="#6d4c41" stroke-width="1.5" fill="none" opacity="0.7"/>
    <path d="M8,22 Q45,14 82,22" stroke="#6d4c41" stroke-width="1.5" fill="none" opacity="0.6"/>
    <circle cx="45" cy="8" r="13" fill="#ffccbc"/>
    <path d="M37,4 Q45,-4 53,4" fill="#4e342e"/>
    <circle cx="38" cy="8" r="3" fill="#4e342e"/>
    <circle cx="52" cy="8" r="3" fill="#4e342e"/>
    <path d="M36,16 Q45,20 54,16" stroke="#e64a19" stroke-width="1.5" fill="none" stroke-linecap="round"/>
  </g>
  <!-- PRINCESS (Egyptian, elegant) bending down -->
  <g transform="translate(460,150)">
    <ellipse cx="48" cy="185" rx="40" ry="9" fill="#e65100" opacity="0.2"/>
    <!-- Elegant Egyptian dress -->
    <path d="M8,58 Q4,155 2,175 Q48,184 94,175 Q90,155 88,58 Q70,40 48,37 Q28,40 8,58Z" fill="#ce93d8"/>
    <path d="M8,130 Q48,140 90,130 Q88,160 48,166 Q8,160 8,130Z" fill="#ab47bc" opacity="0.4"/>
    <rect x="8" y="110" width="80" height="8" rx="4" fill="#ffd54f"/>
    <rect x="30" y="166" width="12" height="38" rx="5" fill="#ba68c8" opacity="0.7"/>
    <rect x="52" y="166" width="12" height="38" rx="5" fill="#ab47bc" opacity="0.7"/>
    <!-- Egyptian headdress -->
    <rect x="18" y="2" width="60" height="10" rx="3" fill="#ffd54f"/>
    <rect x="12" y="8" width="72" height="14" rx="4" fill="#ff8f00"/>
    <!-- Head -->
    <circle cx="48" cy="28" r="26" fill="#e8a87a"/>
    <path d="M24,17 Q48,2 72,17 Q70,8 48,4 Q26,8 24,17Z" fill="#ffd54f"/>
    <circle cx="35" cy="22" r="4" fill="#3e2723"/>
    <circle cx="61" cy="22" r="4" fill="#3e2723"/>
    <circle cx="36" cy="21" r="1.5" fill="white"/>
    <circle cx="62" cy="21" r="1.5" fill="white"/>
    <!-- Surprised/delighted expression -->
    <circle cx="48" cy="35" r="5" fill="#a1887f" opacity="0"/>
    <path d="M35,36 Q48,44 61,36" stroke="#c62828" stroke-width="2.5" fill="none" stroke-linecap="round"/>
    <circle cx="25" cy="30" r="8" fill="#ef9a9a" opacity="0.4"/>
    <circle cx="71" cy="30" r="8" fill="#ef9a9a" opacity="0.4"/>
    <rect x="40" y="52" width="16" height="14" rx="4" fill="#e8a87a"/>
    <!-- Arms reaching down to basket -->
    <path d="M8,66 Q-22,100 -80,110" stroke="#ce93d8" stroke-width="14" fill="none" stroke-linecap="round"/>
    <circle cx="-82" cy="112" r="11" fill="#e8a87a"/>
    <path d="M88,66 Q102,90 98,115" stroke="#ce93d8" stroke-width="14" fill="none" stroke-linecap="round"/>
    <circle cx="97" cy="117" r="11" fill="#e8a87a"/>
  </g>
  <!-- Servant woman behind princess -->
  <g transform="translate(580,195)" opacity="0.85">
    <path d="M4,40 Q2,100 0,112 Q28,118 56,112 Q54,100 54,40 Q42,28 28,26 Q14,28 4,40Z" fill="#ef9a9a"/>
    <circle cx="28" cy="16" r="20" fill="#ffccbc"/>
    <path d="M10,8 Q28,-6 46,8 Q44,0 28,-2 Q12,0 10,8Z" fill="#4e342e"/>
    <circle cx="20" cy="11" r="3" fill="#4e342e"/>
    <circle cx="36" cy="11" r="3" fill="#4e342e"/>
    <path d="M18,22 Q28,28 38,22" stroke="#c62828" stroke-width="2" fill="none"/>
  </g>
  <!-- Wonder sparkles -->
  <g fill="#fff176" opacity="0.7">
    <circle cx="350" cy="240" r="4"/><circle cx="320" cy="265" r="3"/>
    <circle cx="380" cy="250" r="3.5"/>
  </g>
</svg>
