<svg xmlns="http://www.w3.org/2000/svg" viewBox="0 0 800 380">
  <defs>
    <linearGradient id="skyD4" x1="0%" y1="0%" x2="0%" y2="100%">
      <stop offset="0%" style="stop-color:#0d1b4b"/>
      <stop offset="100%" style="stop-color:#1a237e"/>
    </linearGradient>
    <radialGradient id="angelGlowD4" cx="50%" cy="50%" r="50%">
      <stop offset="0%" style="stop-color:#fff9c4;stop-opacity:0.9"/>
      <stop offset="100%" style="stop-color:#ffca28;stop-opacity:0"/>
    </radialGradient>
  </defs>
  <!-- Night sky -->
  <rect width="800" height="380" fill="url(#skyD4)"/>
  <!-- Stars -->
  <circle cx="50" cy="30" r="2" fill="white" opacity="0.9"/>
  <circle cx="120" cy="15" r="2.5" fill="white" opacity="0.8"/>
  <circle cx="200" cy="40" r="2" fill="white" opacity="0.85"/>
  <circle cx="300" cy="18" r="3" fill="white" opacity="0.9"/>
  <circle cx="650" cy="25" r="2.5" fill="white" opacity="0.8"/>
  <circle cx="730" cy="45" r="2" fill="white" opacity="0.75"/>
  <circle cx="780" cy="15" r="2" fill="white" opacity="0.9"/>
  <!-- Ground / field -->
  <rect x="0" y="290" width="800" height="90" fill="#2e7d32"/>
  <rect x="0" y="320" width="800" height="60" fill="#388e3c"/>
  <!-- Angel glow -->
  <ellipse cx="580" cy="160" rx="120" ry="140" fill="url(#angelGlowD4)"/>
  <!-- Angel body -->
  <!-- Wings -->
  <path d="M520 140 Q470 100 450 150 Q480 160 520 155 Z" fill="white" opacity="0.9"/>
  <path d="M640 140 Q690 100 710 150 Q680 160 640 155 Z" fill="white" opacity="0.9"/>
  <path d="M525 160 Q480 130 460 180 Q490 185 525 175 Z" fill="#fff9c4" opacity="0.7"/>
  <path d="M635 160 Q680 130 700 180 Q670 185 635 175 Z" fill="#fff9c4" opacity="0.7"/>
  <!-- Angel robe -->
  <path d="M548 260 Q558 200 568 175 L592 175 Q602 200 612 260 Z" fill="white" opacity="0.95"/>
  <!-- Angel head -->
  <circle cx="580" cy="162" r="24" fill="#fff9c4"/>
  <!-- Halo -->
  <circle cx="580" cy="138" r="20" fill="none" stroke="#ffca28" stroke-width="5" opacity="0.9"/>
  <!-- Angel eyes -->
  <circle cx="573" cy="162" r="4" fill="#5d4037"/>
  <circle cx="587" cy="162" r="4" fill="#5d4037"/>
  <circle cx="574.5" cy="160.5" r="1.5" fill="white"/>
  <circle cx="588.5" cy="160.5" r="1.5" fill="white"/>
  <path d="M573 169 Q580 175 587 169" stroke="#795548" stroke-width="2" fill="none"/>
  <circle cx="566" cy="168" r="5" fill="#fff9c4" opacity="0.6"/>
  <circle cx="594" cy="168" r="5" fill="#fff9c4" opacity="0.6"/>
  <!-- Angel arms raised -->
  <path d="M568 188 Q545 175 530 165" stroke="white" stroke-width="13" fill="none" stroke-linecap="round"/>
  <path d="M592 188 Q615 175 630 165" stroke="white" stroke-width="13" fill="none" stroke-linecap="round"/>
  <!-- Pastor 1 - surprised -->
  <path d="M155 340 Q162 290 168 265 L186 265 Q192 290 198 340 Z" fill="#795548"/>
  <circle cx="177" cy="254" r="22" fill="#ffcc80"/>
  <path d="M155 249 Q177 233 199 249 L201 258 Q177 248 154 258 Z" fill="#5d4037"/>
  <circle cx="170" cy="252" r="4" fill="#4e342e"/>
  <circle cx="184" cy="252" r="4" fill="#4e342e"/>
  <circle cx="171.5" cy="250" r="1.5" fill="white"/>
  <circle cx="185.5" cy="250" r="1.5" fill="white"/>
  <!-- mouth open in surprise -->
  <ellipse cx="177" cy="260" rx="5" ry="7" fill="#5d4037"/>
  <circle cx="163" cy="258" r="6" fill="#ef9a9a" opacity="0.4"/>
  <circle cx="191" cy="258" r="6" fill="#ef9a9a" opacity="0.4"/>
  <!-- Pastor 1 arm pointing at angel -->
  <path d="M186 278 Q220 265 250 255" stroke="#795548" stroke-width="12" fill="none" stroke-linecap="round"/>
  <!-- Pastor 2 -->
  <path d="M255 345 Q262 295 268 268 L286 268 Q292 295 298 345 Z" fill="#8d6e63"/>
  <circle cx="277" cy="257" r="22" fill="#ffcc80"/>
  <path d="M257 251 Q277 234 297 251 L299 262 Q277 252 256 262 Z" fill="#6d4c41"/>
  <circle cx="270" cy="256" r="4" fill="#4e342e"/>
  <circle cx="284" cy="256" r="4" fill="#4e342e"/>
  <circle cx="271.5" cy="254" r="1.5" fill="white"/>
  <circle cx="285.5" cy="254" r="1.5" fill="white"/>
  <ellipse cx="277" cy="264" rx="5" ry="6" fill="#5d4037"/>
  <circle cx="263" cy="262" r="6" fill="#ef9a9a" opacity="0.4"/>
  <circle cx="291" cy="262" r="6" fill="#ef9a9a" opacity="0.4"/>
  <!-- Pastor 3 kneeling -->
  <ellipse cx="195" cy="352" rx="22" ry="14" fill="#6d4c41" opacity="0.9"/>
  <circle cx="195" cy="330" r="20" fill="#ffcc80"/>
  <path d="M178 325 Q195 312 212 325 L214 336 Q195 328 177 336 Z" fill="#4e342e"/>
  <circle cx="188" cy="330" r="3.5" fill="#4e342e"/>
  <circle cx="202" cy="330" r="3.5" fill="#4e342e"/>
  <path d="M188 337 Q195 342 202 337" stroke="#795548" stroke-width="1.8" fill="none"/>
  <!-- Sheep 1 -->
  <ellipse cx="100" cy="320" rx="30" ry="18" fill="#eceff1"/>
  <circle cx="128" cy="312" r="14" fill="#eceff1"/>
  <rect x="88" y="334" width="8" height="15" rx="3" fill="#bdbdbd"/>
  <rect x="102" y="334" width="8" height="15" rx="3" fill="#bdbdbd"/>
  <circle cx="135" cy="310" r="5" fill="#5d4037"/>
  <!-- Sheep 2 -->
  <ellipse cx="350" cy="328" rx="25" ry="16" fill="#eceff1"/>
  <circle cx="373" cy="320" r="12" fill="#eceff1"/>
  <circle cx="379" cy="318" r="4" fill="#5d4037"/>
  <!-- Staff -->
  <line x1="155" y1="240" x2="140" y2="355" stroke="#6d4c41" stroke-width="7" stroke-linecap="round"/>
</svg>
