<svg xmlns="http://www.w3.org/2000/svg" viewBox="0 0 800 380">
  <defs>
    <linearGradient id="skyA1" x1="0%" y1="0%" x2="0%" y2="100%">
      <stop offset="0%" style="stop-color:#ff7043"/>
      <stop offset="50%" style="stop-color:#ffb74d"/>
      <stop offset="100%" style="stop-color:#ffe0b2"/>
    </linearGradient>
    <linearGradient id="groundA1" x1="0%" y1="0%" x2="0%" y2="100%">
      <stop offset="0%" style="stop-color:#a1887f"/>
      <stop offset="100%" style="stop-color:#795548"/>
    </linearGradient>
  </defs>
  <!-- Sky -->
  <rect width="800" height="380" fill="url(#skyA1)"/>
  <!-- Sun setting -->
  <circle cx="680" cy="80" r="45" fill="#ffcc02" opacity="0.85"/>
  <!-- Hills -->
  <ellipse cx="150" cy="290" rx="200" ry="90" fill="#8d6e63"/>
  <ellipse cx="650" cy="310" rx="220" ry="80" fill="#795548"/>
  <ellipse cx="400" cy="320" rx="300" ry="70" fill="#6d4c41"/>
  <!-- Ground/road -->
  <rect x="0" y="300" width="800" height="80" fill="url(#groundA1)"/>
  <path d="M200 380 Q400 295 600 380" fill="#bcaaa4" opacity="0.5"/>
  <!-- Donkey body -->
  <ellipse cx="380" cy="295" rx="55" ry="28" fill="#8d6e63"/>
  <rect x="340" y="310" width="12" height="30" rx="5" fill="#795548"/>
  <rect x="360" y="312" width="12" height="28" rx="5" fill="#795548"/>
  <rect x="386" y="312" width="12" height="28" rx="5" fill="#795548"/>
  <rect x="406" y="310" width="12" height="30" rx="5" fill="#795548"/>
  <!-- Donkey head/neck -->
  <ellipse cx="435" cy="280" rx="22" ry="16" fill="#8d6e63"/>
  <ellipse cx="452" cy="270" rx="14" ry="11" fill="#795548"/>
  <!-- Donkey ears -->
  <ellipse cx="448" cy="260" rx="5" ry="10" fill="#8d6e63"/>
  <!-- Maria on donkey -->
  <!-- Maria body/robe -->
  <ellipse cx="375" cy="268" rx="22" ry="28" fill="#5c6bc0"/>
  <!-- Maria head -->
  <circle cx="375" cy="242" r="22" fill="#ffcc80"/>
  <!-- Maria hair/veil -->
  <path d="M353 238 Q375 218 397 238 L400 270 Q375 278 350 270 Z" fill="#1a237e" opacity="0.8"/>
  <!-- Maria eyes -->
  <circle cx="369" cy="242" r="4" fill="#4e342e"/>
  <circle cx="381" cy="242" r="4" fill="#4e342e"/>
  <circle cx="370.5" cy="240.5" r="1.5" fill="white"/>
  <circle cx="382.5" cy="240.5" r="1.5" fill="white"/>
  <!-- Maria smile -->
  <path d="M370 248 Q375 253 380 248" stroke="#795548" stroke-width="2" fill="none"/>
  <!-- Maria cheeks -->
  <circle cx="364" cy="247" r="6" fill="#ef9a9a" opacity="0.4"/>
  <circle cx="386" cy="247" r="6" fill="#ef9a9a" opacity="0.4"/>
  <!-- Jose walking -->
  <!-- Jose robe -->
  <path d="M490 320 Q500 260 510 230 L530 230 Q540 260 550 320 Z" fill="#8d6e63"/>
  <!-- Jose head -->
  <circle cx="520" cy="220" r="24" fill="#ffcc80"/>
  <!-- Jose hair -->
  <path d="M496 215 Q520 196 544 215 L546 222 Q520 210 494 222 Z" fill="#5d4037"/>
  <!-- Jose beard -->
  <path d="M508 230 Q520 244 532 230 L534 240 Q520 252 506 240 Z" fill="#5d4037" opacity="0.6"/>
  <!-- Jose eyes -->
  <circle cx="513" cy="220" r="4" fill="#4e342e"/>
  <circle cx="527" cy="220" r="4" fill="#4e342e"/>
  <circle cx="514.5" cy="218.5" r="1.5" fill="white"/>
  <circle cx="528.5" cy="218.5" r="1.5" fill="white"/>
  <!-- Jose smile -->
  <path d="M513 226 Q520 231 527 226" stroke="#795548" stroke-width="2" fill="none"/>
  <!-- Jose cheeks -->
  <circle cx="506" cy="225" r="6" fill="#ef9a9a" opacity="0.4"/>
  <circle cx="534" cy="225" r="6" fill="#ef9a9a" opacity="0.4"/>
  <!-- Jose staff -->
  <line x1="555" y1="200" x2="570" y2="330" stroke="#6d4c41" stroke-width="7" stroke-linecap="round"/>
  <!-- Jose arms -->
  <path d="M510 245 Q495 260 490 270" stroke="#8d6e63" stroke-width="12" fill="none" stroke-linecap="round"/>
  <path d="M530 245 Q545 258 550 265" stroke="#8d6e63" stroke-width="12" fill="none" stroke-linecap="round"/>
  <!-- Stars in sky -->
  <circle cx="100" cy="40" r="3" fill="white" opacity="0.8"/>
  <circle cx="200" cy="25" r="2" fill="white" opacity="0.7"/>
  <circle cx="300" cy="50" r="2.5" fill="white" opacity="0.6"/>
</svg>
