<svg xmlns="http://www.w3.org/2000/svg" viewBox="0 0 800 380">
  <defs>
    <linearGradient id="skyC3" x1="0%" y1="0%" x2="0%" y2="100%">
      <stop offset="0%" style="stop-color:#0d1b4b"/>
      <stop offset="100%" style="stop-color:#1a237e"/>
    </linearGradient>
    <radialGradient id="glowC3" cx="50%" cy="50%" r="50%">
      <stop offset="0%" style="stop-color:#fff176;stop-opacity:1"/>
      <stop offset="100%" style="stop-color:#ffca28;stop-opacity:0"/>
    </radialGradient>
  </defs>
  <!-- Night sky -->
  <rect width="800" height="380" fill="url(#skyC3)"/>
  <!-- Stars -->
  <circle cx="60" cy="25" r="2" fill="white" opacity="0.9"/>
  <circle cx="140" cy="50" r="2.5" fill="white" opacity="0.8"/>
  <circle cx="230" cy="20" r="2" fill="white" opacity="0.85"/>
  <circle cx="560" cy="35" r="2.5" fill="white" opacity="0.8"/>
  <circle cx="660" cy="20" r="2" fill="white" opacity="0.9"/>
  <circle cx="750" cy="45" r="3" fill="white" opacity="0.85"/>
  <!-- Big star of Bethlehem -->
  <circle cx="400" cy="40" r="8" fill="#fff176" opacity="0.95"/>
  <line x1="400" y1="10" x2="400" y2="70" stroke="#fff176" stroke-width="3" opacity="0.7"/>
  <line x1="370" y1="40" x2="430" y2="40" stroke="#fff176" stroke-width="3" opacity="0.7"/>
  <line x1="379" y1="19" x2="421" y2="61" stroke="#fff176" stroke-width="2" opacity="0.5"/>
  <line x1="421" y1="19" x2="379" y2="61" stroke="#fff176" stroke-width="2" opacity="0.5"/>
  <!-- Stable structure -->
  <polygon points="100,200 400,120 700,200" fill="#4e342e"/>
  <rect x="120" y="198" width="560" height="170" fill="#5d4037"/>
  <!-- Stable walls/posts -->
  <rect x="120" y="198" width="18" height="170" fill="#3e2723"/>
  <rect x="662" y="198" width="18" height="170" fill="#3e2723"/>
  <!-- Hay/manger glow -->
  <ellipse cx="400" cy="290" rx="80" ry="30" fill="url(#glowC3)" opacity="0.9"/>
  <!-- Manger -->
  <path d="M340 310 L360 270 L440 270 L460 310 Z" fill="#6d4c41"/>
  <rect x="345" y="268" width="110" height="12" rx="4" fill="#795548"/>
  <!-- Baby Jesus -->
  <ellipse cx="400" cy="282" rx="35" ry="16" fill="#fff9e7"/>
  <circle cx="400" cy="270" r="15" fill="#ffcc80"/>
  <circle cx="395" cy="268" r="3" fill="#5d4037"/>
  <circle cx="405" cy="268" r="3" fill="#5d4037"/>
  <circle cx="396" cy="267" r="1.2" fill="white"/>
  <circle cx="406" cy="267" r="1.2" fill="white"/>
  <path d="M395 274 Q400 278 405 274" stroke="#795548" stroke-width="1.5" fill="none"/>
  <!-- Golden rays from baby -->
  <line x1="400" y1="260" x2="400" y2="220" stroke="#ffca28" stroke-width="2" opacity="0.6"/>
  <line x1="420" y1="265" x2="445" y2="235" stroke="#ffca28" stroke-width="2" opacity="0.5"/>
  <line x1="380" y1="265" x2="355" y2="235" stroke="#ffca28" stroke-width="2" opacity="0.5"/>
  <!-- Maria kneeling left -->
  <ellipse cx="270" cy="318" rx="30" ry="20" fill="#5c6bc0" opacity="0.9"/>
  <circle cx="270" cy="290" r="22" fill="#ffcc80"/>
  <path d="M248 285 Q270 265 292 285 L295 308 Q270 316 246 308 Z" fill="#1a237e" opacity="0.8"/>
  <circle cx="263" cy="290" r="3.5" fill="#4e342e"/>
  <circle cx="277" cy="290" r="3.5" fill="#4e342e"/>
  <circle cx="264.5" cy="288.5" r="1.3" fill="white"/>
  <circle cx="278.5" cy="288.5" r="1.3" fill="white"/>
  <path d="M263 296 Q270 302 277 296" stroke="#795548" stroke-width="1.8" fill="none"/>
  <circle cx="257" cy="295" r="5" fill="#ef9a9a" opacity="0.4"/>
  <circle cx="283" cy="295" r="5" fill="#ef9a9a" opacity="0.4"/>
  <!-- Maria arms reaching to baby -->
  <path d="M258 305 Q290 310 320 295" stroke="#5c6bc0" stroke-width="12" fill="none" stroke-linecap="round"/>
  <!-- Jose kneeling right -->
  <ellipse cx="530" cy="318" rx="30" ry="20" fill="#8d6e63" opacity="0.9"/>
  <circle cx="530" cy="290" r="24" fill="#ffcc80"/>
  <path d="M506 285 Q530 265 554 285 L556 308 Q530 316 504 308 Z" fill="#5d4037"/>
  <path d="M517 300 Q530 314 543 300 L545 310 Q530 322 515 310 Z" fill="#5d4037" opacity="0.6"/>
  <circle cx="523" cy="290" r="4" fill="#4e342e"/>
  <circle cx="537" cy="290" r="4" fill="#4e342e"/>
  <circle cx="524.5" cy="288.5" r="1.5" fill="white"/>
  <circle cx="538.5" cy="288.5" r="1.5" fill="white"/>
  <path d="M523 297 Q530 303 537 297" stroke="#795548" stroke-width="2" fill="none"/>
  <circle cx="516" cy="297" r="5" fill="#ef9a9a" opacity="0.4"/>
  <circle cx="544" cy="297" r="5" fill="#ef9a9a" opacity="0.4"/>
  <!-- Jose arms reaching -->
  <path d="M542 305 Q510 310 480 295" stroke="#8d6e63" stroke-width="12" fill="none" stroke-linecap="round"/>
  <!-- Ox and donkey in background -->
  <ellipse cx="160" cy="310" rx="40" ry="22" fill="#795548" opacity="0.7"/>
  <circle cx="195" cy="298" r="16" fill="#795548" opacity="0.7"/>
  <ellipse cx="640" cy="312" rx="40" ry="20" fill="#8d6e63" opacity="0.7"/>
  <circle cx="676" cy="300" r="14" fill="#8d6e63" opacity="0.7"/>
  <!-- Ground -->
  <rect x="0" y="350" width="800" height="30" fill="#3e2723" opacity="0.8"/>
</svg>
