<svg xmlns="http://www.w3.org/2000/svg" viewBox="0 0 800 380">
  <defs>
    <linearGradient id="skyE5" x1="0%" y1="0%" x2="0%" y2="100%">
      <stop offset="0%" style="stop-color:#0a0a2e"/>
      <stop offset="100%" style="stop-color:#1a237e"/>
    </linearGradient>
    <radialGradient id="starGlowE5" cx="50%" cy="50%" r="50%">
      <stop offset="0%" style="stop-color:#fff176;stop-opacity:1"/>
      <stop offset="100%" style="stop-color:#ffca28;stop-opacity:0"/>
    </radialGradient>
  </defs>
  <!-- Night sky -->
  <rect width="800" height="380" fill="url(#skyE5)"/>
  <!-- Stars scattered -->
  <circle cx="40" cy="25" r="2" fill="white" opacity="0.8"/>
  <circle cx="110" cy="50" r="1.5" fill="white" opacity="0.7"/>
  <circle cx="180" cy="20" r="2.5" fill="white" opacity="0.9"/>
  <circle cx="260" cy="55" r="2" fill="white" opacity="0.75"/>
  <circle cx="350" cy="30" r="2" fill="white" opacity="0.8"/>
  <circle cx="450" cy="60" r="1.5" fill="white" opacity="0.7"/>
  <circle cx="530" cy="22" r="2" fill="white" opacity="0.85"/>
  <circle cx="620" cy="48" r="2.5" fill="white" opacity="0.8"/>
  <circle cx="700" cy="18" r="2" fill="white" opacity="0.9"/>
  <circle cx="760" cy="55" r="2" fill="white" opacity="0.75"/>
  <!-- Big star of Bethlehem -->
  <ellipse cx="400" cy="50" rx="25" ry="25" fill="url(#starGlowE5)"/>
  <circle cx="400" cy="50" r="12" fill="#fff176"/>
  <line x1="400" y1="10" x2="400" y2="90" stroke="#fff176" stroke-width="4" opacity="0.8"/>
  <line x1="360" y1="50" x2="440" y2="50" stroke="#fff176" stroke-width="4" opacity="0.8"/>
  <line x1="372" y1="22" x2="428" y2="78" stroke="#fff176" stroke-width="2.5" opacity="0.6"/>
  <line x1="428" y1="22" x2="372" y2="78" stroke="#fff176" stroke-width="2.5" opacity="0.6"/>
  <!-- Desert ground -->
  <rect x="0" y="300" width="800" height="80" fill="#5d4037"/>
  <ellipse cx="200" cy="302" rx="180" ry="20" fill="#6d4c41"/>
  <ellipse cx="600" cy="305" rx="200" ry="18" fill="#6d4c41"/>
  <!-- Camels in background (simplified) -->
  <ellipse cx="100" cy="282" rx="45" ry="22" fill="#8d6e63" opacity="0.7"/>
  <rect x="70" y="270" width="12" height="28" rx="5" fill="#795548" opacity="0.7"/>
  <rect x="110" y="270" width="12" height="28" rx="5" fill="#795548" opacity="0.7"/>
  <rect x="138" y="268" width="10" height="30" rx="5" fill="#795548" opacity="0.7"/>
  <ellipse cx="148" cy="262" rx="16" ry="12" fill="#8d6e63" opacity="0.7"/>
  <ellipse cx="158" cy="255" rx="10" ry="8" fill="#795548" opacity="0.7"/>
  <ellipse cx="90" cy="265" rx="14" ry="18" fill="#795548" opacity="0.5"/><!-- hump -->
  <ellipse cx="680" cy="285" rx="40" ry="20" fill="#8d6e63" opacity="0.7"/>
  <ellipse cx="718" cy="274" rx="14" ry="11" fill="#795548" opacity="0.7"/>
  <ellipse cx="688" cy="268" rx="13" ry="16" fill="#795548" opacity="0.5"/>
  <!-- Wise Man 1 (left, gold robe) -->
  <path d="M200 335 Q210 275 218 248 L238 248 Q246 275 254 335 Z" fill="#f9a825"/>
  <circle cx="228" cy="236" r="23" fill="#ffcc80"/>
  <!-- Crown -->
  <rect x="210" y="216" width="36" height="14" rx="3" fill="#f57f17"/>
  <polygon points="210,216 218,206 226,216" fill="#f57f17"/>
  <polygon points="222,216 228,204 234,216" fill="#f57f17"/>
  <polygon points="234,216 242,206 250,216" fill="#f57f17"/>
  <circle cx="228" cy="212" r="4" fill="#ff6f00"/>
  <circle cx="218" cy="214" r="3" fill="#ff8f00"/>
  <circle cx="238" cy="214" r="3" fill="#ff8f00"/>
  <circle cx="221" cy="237" r="3.5" fill="#4e342e"/>
  <circle cx="235" cy="237" r="3.5" fill="#4e342e"/>
  <circle cx="222.5" cy="235.5" r="1.3" fill="white"/>
  <circle cx="236.5" cy="235.5" r="1.3" fill="white"/>
  <path d="M221 243 Q228 248 235 243" stroke="#795548" stroke-width="2" fill="none"/>
  <circle cx="215" cy="242" r="5" fill="#ef9a9a" opacity="0.4"/>
  <circle cx="241" cy="242" r="5" fill="#ef9a9a" opacity="0.4"/>
  <!-- Gift box 1 -->
  <path d="M218 270 Q228 260 238 270 L240 285 Q228 290 216 285 Z" fill="#ffca28"/>
  <!-- Wise Man 2 (center, red robe) -->
  <path d="M360 338 Q370 278 378 248 L400 248 Q408 278 418 338 Z" fill="#c62828"/>
  <circle cx="389" cy="236" r="24" fill="#ffb74d"/>
  <!-- Crown 2 -->
  <rect x="370" y="216" width="38" height="14" rx="3" fill="#b71c1c"/>
  <polygon points="370,216 378,205 386,216" fill="#b71c1c"/>
  <polygon points="382,216 389,203 396,216" fill="#b71c1c"/>
  <polygon points="396,216 404,205 412,216" fill="#b71c1c"/>
  <circle cx="389" cy="212" r="4" fill="#d50000"/>
  <circle cx="379" cy="214" r="3" fill="#e53935"/>
  <circle cx="399" cy="214" r="3" fill="#e53935"/>
  <!-- Beard 2 -->
  <path d="M377 246 Q389 260 401 246 L403 256 Q389 268 375 256 Z" fill="#6d4c41" opacity="0.6"/>
  <circle cx="382" cy="237" r="4" fill="#4e342e"/>
  <circle cx="396" cy="237" r="4" fill="#4e342e"/>
  <circle cx="383.5" cy="235.5" r="1.5" fill="white"/>
  <circle cx="397.5" cy="235.5" r="1.5" fill="white"/>
  <path d="M382 243 Q389 249 396 243" stroke="#795548" stroke-width="2" fill="none"/>
  <circle cx="375" cy="243" r="5" fill="#ef9a9a" opacity="0.4"/>
  <circle cx="403" cy="243" r="5" fill="#ef9a9a" opacity="0.4"/>
  <!-- Gift 2 -->
  <rect x="374" y="265" width="30" height="22" rx="4" fill="#7b1fa2"/>
  <line x1="389" y1="265" x2="389" y2="287" stroke="#ce93d8" stroke-width="2"/>
  <line x1="374" y1="276" x2="404" y2="276" stroke="#ce93d8" stroke-width="2"/>
  <!-- Wise Man 3 (right, purple robe) -->
  <path d="M520 338 Q530 275 538 248 L560 248 Q568 275 578 338 Z" fill="#4527a0"/>
  <circle cx="549" cy="236" r="23" fill="#ffcc80"/>
  <!-- Crown 3 -->
  <rect x="531" y="216" width="36" height="14" rx="3" fill="#311b92"/>
  <polygon points="531,216 539,206 547,216" fill="#311b92"/>
  <polygon points="543,216 549,204 555,216" fill="#311b92"/>
  <polygon points="555,216 563,206 571,216" fill="#311b92"/>
  <circle cx="549" cy="212" r="4" fill="#6200ea"/>
  <circle cx="539" cy="214" r="3" fill="#651fff"/>
  <circle cx="559" cy="214" r="3" fill="#651fff"/>
  <!-- Beard 3 -->
  <path d="M537 246 Q549 260 561 246 L563 256 Q549 268 535 256 Z" fill="#5d4037" opacity="0.6"/>
  <circle cx="542" cy="237" r="4" fill="#4e342e"/>
  <circle cx="556" cy="237" r="4" fill="#4e342e"/>
  <circle cx="543.5" cy="235.5" r="1.5" fill="white"/>
  <circle cx="557.5" cy="235.5" r="1.5" fill="white"/>
  <path d="M542 243 Q549 248 556 243" stroke="#795548" stroke-width="2" fill="none"/>
  <circle cx="535" cy="243" r="5" fill="#ef9a9a" opacity="0.4"/>
  <circle cx="563" cy="243" r="5" fill="#ef9a9a" opacity="0.4"/>
  <!-- Gift 3 jar -->
  <ellipse cx="549" cy="268" rx="16" ry="10" fill="#795548"/>
  <rect x="535" y="268" width="28" height="20" rx="4" fill="#6d4c41"/>
  <ellipse cx="549" cy="288" rx="14" ry="6" fill="#795548"/>
  <!-- All pointing at star -->
  <path d="M238 260 Q310 230 380 200" stroke="#f9a825" stroke-width="11" fill="none" stroke-linecap="round"/>
  <path d="M400 258 Q400 220 400 185" stroke="#c62828" stroke-width="11" fill="none" stroke-linecap="round"/>
  <path d="M560 258 Q490 228 420 198" stroke="#4527a0" stroke-width="11" fill="none" stroke-linecap="round"/>
</svg>
