<svg xmlns="http://www.w3.org/2000/svg" viewBox="0 0 800 380">
  <defs>
    <linearGradient id="rm5_sky" x1="0%" y1="0%" x2="0%" y2="100%">
      <stop offset="0%" style="stop-color:#020617"/>
      <stop offset="50%" style="stop-color:#0f0828"/>
      <stop offset="100%" style="stop-color:#1e1b4b"/>
    </linearGradient>
    <linearGradient id="rm5_desert" x1="0%" y1="0%" x2="0%" y2="100%">
      <stop offset="0%" style="stop-color:#92400e"/>
      <stop offset="100%" style="stop-color:#451a03"/>
    </linearGradient>
    <radialGradient id="rm5_starGlow" cx="50%" cy="50%" r="50%">
      <stop offset="0%" style="stop-color:#fef9c3;stop-opacity:1"/>
      <stop offset="50%" style="stop-color:#fde047;stop-opacity:0.5"/>
      <stop offset="100%" style="stop-color:#fde047;stop-opacity:0"/>
    </radialGradient>
  </defs>
  <!-- Night sky - different direction (going back) -->
  <rect width="800" height="380" fill="url(#rm5_sky)"/>
  <!-- Stars all around -->
  <circle cx="30" cy="25" r="2" fill="white" opacity="0.9"/>
  <circle cx="90" cy="45" r="1.5" fill="white" opacity="0.7"/>
  <circle cx="160" cy="20" r="2" fill="white" opacity="0.8"/>
  <circle cx="230" cy="50" r="1.5" fill="white" opacity="0.6"/>
  <circle cx="310" cy="15" r="2" fill="white" opacity="0.9"/>
  <circle cx="380" cy="40" r="1.5" fill="white" opacity="0.7"/>
  <circle cx="470" cy="25" r="2" fill="white" opacity="0.8"/>
  <circle cx="540" cy="55" r="1.5" fill="white" opacity="0.6"/>
  <circle cx="620" cy="30" r="2" fill="white" opacity="0.9"/>
  <circle cx="690" cy="15" r="1.5" fill="white" opacity="0.7"/>
  <circle cx="760" cy="45" r="2" fill="white" opacity="0.8"/>
  <circle cx="70" cy="90" r="1.5" fill="white" opacity="0.5"/>
  <circle cx="200" cy="80" r="1" fill="white" opacity="0.6"/>
  <circle cx="450" cy="70" r="1.5" fill="white" opacity="0.5"/>
  <circle cx="700" cy="80" r="1" fill="white" opacity="0.6"/>
  <circle cx="120" cy="130" r="1" fill="white" opacity="0.4"/>
  <circle cx="350" cy="120" r="1.5" fill="white" opacity="0.5"/>
  <circle cx="580" cy="110" r="1" fill="white" opacity="0.4"/>
  <!-- Moon -->
  <circle cx="100" cy="70" r="35" fill="#fde68a" opacity="0.9"/>
  <circle cx="115" cy="60" r="28" fill="#1e1b4b"/>
  <!-- Star guiding above them (different position) -->
  <circle cx="650" cy="80" r="90" fill="url(#rm5_starGlow)"/>
  <polygon points="650,40 658,65 685,65 664,81 672,106 650,91 628,106 636,81 615,65 642,65" fill="#fef9c3"/>
  <!-- Directional ray down from star -->
  <line x1="650" y1="110" x2="500" y2="230" stroke="#fef9c3" stroke-width="2" stroke-dasharray="8,6" opacity="0.6"/>
  <!-- Desert ground -->
  <rect x="0" y="295" width="800" height="85" fill="url(#rm5_desert)"/>
  <ellipse cx="300" cy="298" rx="320" ry="20" fill="#b45309"/>
  <ellipse cx="650" cy="300" rx="200" ry="15" fill="#92400e"/>
  <!-- Road / path -->
  <polygon points="310,380 340,295 460,295 490,380" fill="#78350f" opacity="0.5"/>
  <!-- Camel caravan going different direction (right to left now) -->
  <!-- Camel 1 (back of group) -->
  <ellipse cx="660" cy="278" rx="48" ry="24" fill="#b45309"/>
  <rect x="635" y="254" width="50" height="27" rx="7" fill="#a16207"/>
  <rect x="618" y="247" width="16" height="32" rx="7" fill="#b45309"/>
  <ellipse cx="612" cy="245" rx="13" ry="11" fill="#b45309"/>
  <rect x="638" y="299" width="9" height="18" rx="3" fill="#92400e"/>
  <rect x="653" y="299" width="9" height="20" rx="3" fill="#92400e"/>
  <rect x="668" y="299" width="9" height="18" rx="3" fill="#92400e"/>
  <rect x="682" y="299" width="9" height="20" rx="3" fill="#92400e"/>
  <!-- King on camel 1 -->
  <rect x="643" y="240" width="26" height="20" rx="6" fill="#1d4ed8"/>
  <circle cx="656" cy="232" r="14" fill="#fcd34d"/>
  <rect x="644" y="219" width="23" height="8" fill="#1e40af"/>
  <!-- Camel 2 -->
  <ellipse cx="480" cy="275" rx="48" ry="24" fill="#d97706"/>
  <rect x="455" y="251" width="50" height="27" rx="7" fill="#b45309"/>
  <rect x="438" y="244" width="16" height="32" rx="7" fill="#d97706"/>
  <ellipse cx="432" cy="242" rx="13" ry="11" fill="#d97706"/>
  <rect x="458" y="296" width="9" height="18" rx="3" fill="#b45309"/>
  <rect x="473" y="296" width="9" height="20" rx="3" fill="#b45309"/>
  <rect x="488" y="296" width="9" height="18" rx="3" fill="#b45309"/>
  <rect x="502" y="296" width="9" height="20" rx="3" fill="#b45309"/>
  <!-- King on camel 2 -->
  <rect x="463" y="237" width="26" height="20" rx="6" fill="#7c3aed"/>
  <circle cx="476" cy="229" r="14" fill="#fde68a"/>
  <rect x="464" y="216" width="23" height="8" fill="#6d28d9"/>
  <!-- Camel 3 -->
  <ellipse cx="300" cy="272" rx="48" ry="24" fill="#a16207"/>
  <rect x="275" y="248" width="50" height="27" rx="7" fill="#92400e"/>
  <rect x="258" y="241" width="16" height="32" rx="7" fill="#a16207"/>
  <ellipse cx="252" cy="239" rx="13" ry="11" fill="#a16207"/>
  <rect x="278" y="293" width="9" height="18" rx="3" fill="#78350f"/>
  <rect x="293" y="293" width="9" height="20" rx="3" fill="#78350f"/>
  <rect x="308" y="293" width="9" height="18" rx="3" fill="#78350f"/>
  <rect x="322" y="293" width="9" height="20" rx="3" fill="#78350f"/>
  <!-- King on camel 3 -->
  <rect x="283" y="234" width="26" height="20" rx="6" fill="#dc2626"/>
  <circle cx="296" cy="226" r="14" fill="#fbbf24"/>
  <rect x="284" y="213" width="23" height="8" fill="#b91c1c"/>
  <!-- Dream cloud showing them a different route (angel warning) -->
  <ellipse cx="180" cy="130" rx="70" ry="40" fill="white" opacity="0.15"/>
  <ellipse cx="140" cy="140" rx="40" ry="28" fill="white" opacity="0.1"/>
  <ellipse cx="220" cy="140" rx="40" ry="28" fill="white" opacity="0.1"/>
  <!-- Angel figure in cloud -->
  <circle cx="180" cy="118" r="12" fill="#fef9c3" opacity="0.5"/>
  <ellipse cx="165" cy="115" rx="18" ry="10" fill="#fef9c3" opacity="0.4" transform="rotate(-20, 165, 115)"/>
  <ellipse cx="195" cy="115" rx="18" ry="10" fill="#fef9c3" opacity="0.4" transform="rotate(20, 195, 115)"/>
</svg>
