<svg xmlns="http://www.w3.org/2000/svg" viewBox="0 0 800 380">
  <defs>
    <linearGradient id="rm2_sky" x1="0%" y1="0%" x2="0%" y2="100%">
      <stop offset="0%" style="stop-color:#1e0a3c"/>
      <stop offset="100%" style="stop-color:#3730a3"/>
    </linearGradient>
    <linearGradient id="rm2_sand" x1="0%" y1="0%" x2="0%" y2="100%">
      <stop offset="0%" style="stop-color:#d97706"/>
      <stop offset="100%" style="stop-color:#92400e"/>
    </linearGradient>
  </defs>
  <!-- Sky -->
  <rect width="800" height="380" fill="url(#rm2_sky)"/>
  <!-- Stars -->
  <circle cx="40" cy="25" r="2" fill="white" opacity="0.8"/>
  <circle cx="100" cy="15" r="1.5" fill="white" opacity="0.7"/>
  <circle cx="180" cy="40" r="2" fill="white" opacity="0.6"/>
  <circle cx="350" cy="20" r="1.5" fill="white" opacity="0.8"/>
  <circle cx="500" cy="30" r="2" fill="white" opacity="0.7"/>
  <circle cx="660" cy="18" r="1.5" fill="white" opacity="0.9"/>
  <circle cx="750" cy="45" r="2" fill="white" opacity="0.6"/>
  <!-- Jerusalem city walls -->
  <rect x="200" y="150" width="400" height="160" fill="#78350f"/>
  <rect x="190" y="140" width="420" height="25" fill="#92400e"/>
  <!-- Battlements -->
  <rect x="190" y="125" width="20" height="20" fill="#92400e"/>
  <rect x="220" y="125" width="20" height="20" fill="#92400e"/>
  <rect x="250" y="125" width="20" height="20" fill="#92400e"/>
  <rect x="280" y="125" width="20" height="20" fill="#92400e"/>
  <rect x="310" y="125" width="20" height="20" fill="#92400e"/>
  <rect x="340" y="125" width="20" height="20" fill="#92400e"/>
  <rect x="370" y="125" width="20" height="20" fill="#92400e"/>
  <rect x="400" y="125" width="20" height="20" fill="#92400e"/>
  <rect x="430" y="125" width="20" height="20" fill="#92400e"/>
  <rect x="460" y="125" width="20" height="20" fill="#92400e"/>
  <rect x="490" y="125" width="20" height="20" fill="#92400e"/>
  <rect x="520" y="125" width="20" height="20" fill="#92400e"/>
  <rect x="550" y="125" width="20" height="20" fill="#92400e"/>
  <rect x="580" y="125" width="20" height="20" fill="#92400e"/>
  <!-- Gate -->
  <rect x="360" y="240" width="80" height="70" rx="40 40 0 0" fill="#451a03"/>
  <!-- Windows/lights in city -->
  <rect x="230" y="175" width="20" height="25" rx="3" fill="#fbbf24" opacity="0.8"/>
  <rect x="270" y="180" width="18" height="22" rx="3" fill="#fbbf24" opacity="0.7"/>
  <rect x="500" y="178" width="20" height="25" rx="3" fill="#fbbf24" opacity="0.8"/>
  <rect x="540" y="175" width="18" height="22" rx="3" fill="#fbbf24" opacity="0.7"/>
  <!-- Tower -->
  <rect x="170" y="100" width="55" height="130" fill="#a16207"/>
  <rect x="162" y="88" width="71" height="18" fill="#b45309"/>
  <rect x="162" y="73" width="16" height="20" fill="#b45309"/>
  <rect x="188" y="73" width="16" height="20" fill="#b45309"/>
  <rect x="214" y="73" width="16" height="20" fill="#b45309"/>
  <rect x="575" y="103" width="55" height="127" fill="#a16207"/>
  <rect x="567" y="91" width="71" height="18" fill="#b45309"/>
  <!-- Ground / sand -->
  <rect x="0" y="310" width="800" height="70" fill="url(#rm2_sand)"/>
  <ellipse cx="400" cy="312" rx="450" ry="18" fill="#d97706"/>
  <!-- Road to city -->
  <polygon points="280,380 320,310 480,310 520,380" fill="#b45309" opacity="0.6"/>
  <!-- Camel caravan approaching -->
  <!-- Camel 1 -->
  <ellipse cx="80" cy="285" rx="45" ry="22" fill="#b45309"/>
  <rect x="60" y="263" width="40" height="25" rx="6" fill="#a16207"/>
  <rect x="100" y="257" width="14" height="28" rx="6" fill="#b45309"/>
  <ellipse cx="109" cy="255" rx="11" ry="9" fill="#b45309"/>
  <rect x="65" y="305" width="8" height="16" rx="2" fill="#92400e"/>
  <rect x="78" y="305" width="8" height="18" rx="2" fill="#92400e"/>
  <rect x="93" y="305" width="8" height="16" rx="2" fill="#92400e"/>
  <rect x="107" y="305" width="8" height="18" rx="2" fill="#92400e"/>
  <!-- King on camel 1 -->
  <rect x="68" y="247" width="22" height="20" rx="5" fill="#dc2626"/>
  <circle cx="79" cy="240" r="12" fill="#fbbf24"/>
  <rect x="70" y="228" width="17" height="7" fill="#dc2626"/>
  <!-- Gift box on camel -->
  <rect x="57" y="268" width="14" height="10" rx="2" fill="#f59e0b"/>
  <!-- Camel 2 -->
  <ellipse cx="220" cy="283" rx="45" ry="22" fill="#d97706"/>
  <rect x="200" y="261" width="40" height="25" rx="6" fill="#b45309"/>
  <rect x="240" y="255" width="14" height="28" rx="6" fill="#d97706"/>
  <ellipse cx="249" cy="253" rx="11" ry="9" fill="#d97706"/>
  <rect x="205" y="303" width="8" height="16" rx="2" fill="#b45309"/>
  <rect x="218" y="303" width="8" height="18" rx="2" fill="#b45309"/>
  <rect x="233" y="303" width="8" height="16" rx="2" fill="#b45309"/>
  <rect x="247" y="303" width="8" height="18" rx="2" fill="#b45309"/>
  <!-- King on camel 2 -->
  <rect x="208" y="245" width="22" height="20" rx="5" fill="#7c3aed"/>
  <circle cx="219" cy="238" r="12" fill="#fde68a"/>
  <rect x="210" y="226" width="17" height="7" fill="#6d28d9"/>
  <!-- Camel 3 -->
  <ellipse cx="360" cy="280" rx="45" ry="22" fill="#a16207"/>
  <rect x="340" y="258" width="40" height="25" rx="6" fill="#92400e"/>
  <rect x="380" y="252" width="14" height="28" rx="6" fill="#a16207"/>
  <ellipse cx="389" cy="250" rx="11" ry="9" fill="#a16207"/>
  <rect x="345" y="300" width="8" height="16" rx="2" fill="#78350f"/>
  <rect x="358" y="300" width="8" height="18" rx="2" fill="#78350f"/>
  <rect x="373" y="300" width="8" height="16" rx="2" fill="#78350f"/>
  <rect x="387" y="300" width="8" height="18" rx="2" fill="#78350f"/>
  <!-- King on camel 3 -->
  <rect x="348" y="242" width="22" height="20" rx="5" fill="#1d4ed8"/>
  <circle cx="359" cy="235" r="12" fill="#fcd34d"/>
  <rect x="350" y="223" width="17" height="7" fill="#1e40af"/>
  <!-- Star visible top right -->
  <polygon points="720,50 726,70 748,70 731,83 737,103 720,91 703,103 709,83 692,70 714,70" fill="#fef08a" opacity="0.9"/>
</svg>
