<svg xmlns="http://www.w3.org/2000/svg" viewBox="0 0 800 380">
  <defs>
    <linearGradient id="san5_sky" x1="0%" y1="0%" x2="0%" y2="100%">
      <stop offset="0%" stop-color="#1a0a00"/>
      <stop offset="50%" stop-color="#3a1a00"/>
      <stop offset="100%" stop-color="#5a2a00"/>
    </linearGradient>
    <radialGradient id="san5_divinelight" cx="50%" cy="30%" r="55%">
      <stop offset="0%" stop-color="#fffde7" stop-opacity="0.95"/>
      <stop offset="40%" stop-color="#ffe082" stop-opacity="0.6"/>
      <stop offset="100%" stop-color="#1a0a00" stop-opacity="0"/>
    </radialGradient>
    <linearGradient id="san5_pillar" x1="0%" y1="0%" x2="100%" y2="0%">
      <stop offset="0%" stop-color="#c8a060"/>
      <stop offset="50%" stop-color="#e0c080"/>
      <stop offset="100%" stop-color="#c8a060"/>
    </linearGradient>
    <linearGradient id="san5_floor" x1="0%" y1="0%" x2="0%" y2="100%">
      <stop offset="0%" stop-color="#5a4020"/>
      <stop offset="100%" stop-color="#2a1808"/>
    </linearGradient>
    <radialGradient id="san5_crackglow" cx="50%" cy="50%" r="50%">
      <stop offset="0%" stop-color="#ff8f00" stop-opacity="0.7"/>
      <stop offset="100%" stop-color="#ff8f00" stop-opacity="0"/>
    </radialGradient>
  </defs>

  <rect width="800" height="380" fill="url(#san5_sky)"/>
  <ellipse cx="400" cy="80" rx="250" ry="200" fill="url(#san5_divinelight)"/>
  <line x1="400" y1="0" x2="300" y2="200" stroke="#fffde7" stroke-width="4" opacity="0.25"/>
  <line x1="400" y1="0" x2="350" y2="220" stroke="#fffde7" stroke-width="5" opacity="0.3"/>
  <line x1="400" y1="0" x2="400" y2="230" stroke="#fffde7" stroke-width="7" opacity="0.35"/>
  <line x1="400" y1="0" x2="450" y2="220" stroke="#fffde7" stroke-width="5" opacity="0.3"/>
  <line x1="400" y1="0" x2="500" y2="200" stroke="#fffde7" stroke-width="4" opacity="0.25"/>

  <rect x="0" y="305" width="800" height="75" fill="url(#san5_floor)"/>
  <line x1="0" y1="328" x2="800" y2="328" stroke="#3a2010" stroke-width="2" opacity="0.5"/>
  <line x1="0" y1="350" x2="800" y2="350" stroke="#3a2010" stroke-width="2" opacity="0.5"/>
  <line x1="100" y1="305" x2="100" y2="380" stroke="#3a2010" stroke-width="2" opacity="0.4"/>
  <line x1="200" y1="305" x2="200" y2="380" stroke="#3a2010" stroke-width="2" opacity="0.4"/>
  <line x1="300" y1="305" x2="300" y2="380" stroke="#3a2010" stroke-width="2" opacity="0.4"/>
  <line x1="400" y1="305" x2="400" y2="380" stroke="#3a2010" stroke-width="2" opacity="0.4"/>
  <line x1="500" y1="305" x2="500" y2="380" stroke="#3a2010" stroke-width="2" opacity="0.4"/>
  <line x1="600" y1="305" x2="600" y2="380" stroke="#3a2010" stroke-width="2" opacity="0.4"/>
  <line x1="700" y1="305" x2="700" y2="380" stroke="#3a2010" stroke-width="2" opacity="0.4"/>

  <!-- LEFT PILLAR cracking -->
  <rect x="115" y="30" width="90" height="285" fill="url(#san5_pillar)"/>
  <rect x="105" y="22" width="110" height="18" rx="4" fill="#d4aa70"/>
  <rect x="108" y="18" width="104" height="10" rx="3" fill="#c8a060"/>
  <rect x="105" y="308" width="110" height="14" rx="4" fill="#d4aa70"/>
  <line x1="130" y1="30" x2="130" y2="308" stroke="#b89040" stroke-width="2" opacity="0.5"/>
  <line x1="145" y1="30" x2="145" y2="308" stroke="#b89040" stroke-width="2" opacity="0.5"/>
  <line x1="160" y1="30" x2="160" y2="308" stroke="#e0c880" stroke-width="2" opacity="0.6"/>
  <line x1="175" y1="30" x2="175" y2="308" stroke="#b89040" stroke-width="2" opacity="0.5"/>
  <line x1="190" y1="30" x2="190" y2="308" stroke="#b89040" stroke-width="2" opacity="0.5"/>
  <path d="M155 80 Q148 120 160 160 Q150 200 158 240 Q148 270 155 308" stroke="#ff8f00" stroke-width="3.5" fill="none" opacity="0.9"/>
  <path d="M158 120 Q170 130 182 125" stroke="#ff8f00" stroke-width="2.5" fill="none" opacity="0.8"/>
  <path d="M155 200 Q140 210 132 205" stroke="#ff8f00" stroke-width="2.5" fill="none" opacity="0.8"/>
  <ellipse cx="155" cy="180" rx="25" ry="90" fill="url(#san5_crackglow)" opacity="0.4"/>
  <circle cx="145" cy="140" r="3" fill="#c8a060" opacity="0.7"/>
  <circle cx="170" cy="165" r="2.5" fill="#c8a060" opacity="0.6"/>
  <circle cx="138" cy="200" r="2" fill="#d4aa70" opacity="0.7"/>
  <circle cx="162" cy="230" r="3" fill="#c8a060" opacity="0.6"/>

  <!-- RIGHT PILLAR cracking -->
  <rect x="595" y="30" width="90" height="285" fill="url(#san5_pillar)"/>
  <rect x="585" y="22" width="110" height="18" rx="4" fill="#d4aa70"/>
  <rect x="588" y="18" width="104" height="10" rx="3" fill="#c8a060"/>
  <rect x="585" y="308" width="110" height="14" rx="4" fill="#d4aa70"/>
  <line x1="610" y1="30" x2="610" y2="308" stroke="#b89040" stroke-width="2" opacity="0.5"/>
  <line x1="625" y1="30" x2="625" y2="308" stroke="#b89040" stroke-width="2" opacity="0.5"/>
  <line x1="640" y1="30" x2="640" y2="308" stroke="#e0c880" stroke-width="2" opacity="0.6"/>
  <line x1="655" y1="30" x2="655" y2="308" stroke="#b89040" stroke-width="2" opacity="0.5"/>
  <line x1="670" y1="30" x2="670" y2="308" stroke="#b89040" stroke-width="2" opacity="0.5"/>
  <path d="M645 80 Q652 120 640 160 Q650 200 642 240 Q652 270 645 308" stroke="#ff8f00" stroke-width="3.5" fill="none" opacity="0.9"/>
  <path d="M642 120 Q630 130 618 125" stroke="#ff8f00" stroke-width="2.5" fill="none" opacity="0.8"/>
  <path d="M645 200 Q660 210 668 205" stroke="#ff8f00" stroke-width="2.5" fill="none" opacity="0.8"/>
  <ellipse cx="645" cy="180" rx="25" ry="90" fill="url(#san5_crackglow)" opacity="0.4"/>
  <circle cx="655" cy="140" r="3" fill="#c8a060" opacity="0.7"/>
  <circle cx="630" cy="165" r="2.5" fill="#c8a060" opacity="0.6"/>
  <circle cx="662" cy="200" r="2" fill="#d4aa70" opacity="0.7"/>
  <circle cx="638" cy="230" r="3" fill="#c8a060" opacity="0.6"/>

  <!-- Ceiling arch -->
  <path d="M115 30 Q400 -20 685 30" stroke="#b89040" stroke-width="12" fill="none" opacity="0.7"/>
  <path d="M300 10 Q340 25 320 40" stroke="#ff8f00" stroke-width="2" fill="none" opacity="0.6"/>
  <path d="M460 8 Q430 22 450 38" stroke="#ff8f00" stroke-width="2" fill="none" opacity="0.6"/>

  <!-- Background crowd fleeing -->
  <circle cx="50" cy="282" r="11" fill="#c8956a" opacity="0.8"/>
  <rect x="40" y="292" width="20" height="25" rx="3" fill="#ff8f00" opacity="0.7"/>
  <circle cx="85" cy="279" r="10" fill="#d4a870" opacity="0.8"/>
  <rect x="76" y="289" width="18" height="24" rx="3" fill="#ffcc80" opacity="0.7"/>
  <line x1="40" y1="295" x2="25" y2="275" stroke="#c8956a" stroke-width="6" stroke-linecap="round" opacity="0.8"/>
  <line x1="60" y1="295" x2="72" y2="278" stroke="#c8956a" stroke-width="6" stroke-linecap="round" opacity="0.8"/>
  <circle cx="720" cy="280" r="11" fill="#c8a870" opacity="0.8"/>
  <rect x="710" y="290" width="20" height="25" rx="3" fill="#e8c880" opacity="0.7"/>
  <circle cx="757" cy="278" r="10" fill="#d4956a" opacity="0.8"/>
  <rect x="748" y="288" width="18" height="24" rx="3" fill="#ffb74d" opacity="0.7"/>
  <line x1="730" y1="292" x2="745" y2="274" stroke="#c8a870" stroke-width="6" stroke-linecap="round" opacity="0.8"/>
  <line x1="710" y1="292" x2="698" y2="274" stroke="#c8a870" stroke-width="6" stroke-linecap="round" opacity="0.8"/>
  <circle cx="260" cy="290" r="9" fill="#d4956a" opacity="0.6"/>
  <rect x="252" y="298" width="16" height="20" rx="3" fill="#ff8f00" opacity="0.6"/>
  <circle cx="530" cy="288" r="9" fill="#c8a870" opacity="0.6"/>
  <rect x="522" y="296" width="16" height="20" rx="3" fill="#ffcc80" opacity="0.6"/>

  <!-- SANSÃO legs wide stance -->
  <line x1="375" y1="318" x2="345" y2="355" stroke="#c8956c" stroke-width="26" stroke-linecap="round"/>
  <line x1="425" y1="318" x2="455" y2="355" stroke="#c8956c" stroke-width="26" stroke-linecap="round"/>
  <ellipse cx="342" cy="358" rx="22" ry="9" fill="#8b5e20"/>
  <ellipse cx="458" cy="358" rx="22" ry="9" fill="#8b5e20"/>

  <!-- Torso massive -->
  <path d="M318 320 Q324 240 342 222 Q362 206 400 210 Q438 206 458 222 Q476 240 482 320Z" fill="#e8a030"/>
  <rect x="326" y="258" width="148" height="14" rx="7" fill="#c87820"/>
  <path d="M352 228 Q366 220 382 224" stroke="#c87820" stroke-width="2" fill="none" opacity="0.5"/>
  <path d="M418 224 Q434 220 448 228" stroke="#c87820" stroke-width="2" fill="none" opacity="0.5"/>
  <line x1="400" y1="222" x2="400" y2="258" stroke="#c87820" stroke-width="2" opacity="0.4"/>

  <!-- Left arm stretched to left pillar -->
  <line x1="326" y1="245" x2="215" y2="218" stroke="#c8956c" stroke-width="28" stroke-linecap="round"/>
  <circle cx="210" cy="217" r="22" fill="#c8956c"/>
  <line x1="290" y1="238" x2="250" y2="228" stroke="#b07050" stroke-width="2" opacity="0.5"/>
  <ellipse cx="210" cy="217" rx="30" ry="20" fill="#ff8f00" opacity="0.25"/>

  <!-- Right arm stretched to right pillar -->
  <line x1="474" y1="245" x2="585" y2="218" stroke="#c8956c" stroke-width="28" stroke-linecap="round"/>
  <circle cx="590" cy="217" r="22" fill="#c8956c"/>
  <line x1="510" y1="238" x2="550" y2="228" stroke="#b07050" stroke-width="2" opacity="0.5"/>
  <ellipse cx="590" cy="217" rx="30" ry="20" fill="#ff8f00" opacity="0.25"/>

  <!-- Head with regrown long flowing hair -->
  <circle cx="400" cy="200" r="30" fill="#c8956c"/>
  <!-- Hair flowing left -->
  <path d="M374 188 Q340 200 308 220 Q280 238 268 262 Q274 245 298 228 Q328 210 370 196Z" fill="#5a3010"/>
  <path d="M370 192 Q332 210 298 234 Q272 255 262 280 Q270 258 292 240 Q322 218 366 200Z" fill="#4a2808"/>
  <!-- Top hair flowing back -->
  <path d="M382 172 Q370 148 366 122" stroke="#5a3010" stroke-width="5" fill="none" stroke-linecap="round"/>
  <path d="M400 170 Q398 144 400 118" stroke="#4a2808" stroke-width="5" fill="none" stroke-linecap="round"/>
  <path d="M418 172 Q430 148 434 122" stroke="#5a3010" stroke-width="5" fill="none" stroke-linecap="round"/>
  <!-- Hair flowing right -->
  <path d="M426 188 Q462 200 492 220 Q520 238 532 262 Q526 245 502 228 Q472 210 430 196Z" fill="#5a3010"/>
  <path d="M430 192 Q468 210 502 234 Q528 255 538 280 Q530 258 508 240 Q478 218 434 200Z" fill="#4a2808"/>
  <rect x="374" y="185" width="52" height="10" rx="5" fill="#c87020"/>

  <!-- Determined expression -->
  <path d="M384 188 Q392 183 400 188" stroke="#4a2808" stroke-width="3" fill="none"/>
  <path d="M400 188 Q408 183 416 188" stroke="#4a2808" stroke-width="3" fill="none"/>
  <line x1="396" y1="187" x2="400" y2="191" stroke="#4a2808" stroke-width="2" opacity="0.7"/>
  <line x1="404" y1="187" x2="400" y2="191" stroke="#4a2808" stroke-width="2" opacity="0.7"/>
  <path d="M384 193 Q392 190 400 193" stroke="#3a2010" stroke-width="2.5" fill="none"/>
  <path d="M400 193 Q408 190 416 193" stroke="#3a2010" stroke-width="2.5" fill="none"/>
  <path d="M386 208 Q400 215 414 208" stroke="#8b3a10" stroke-width="2.5" fill="none"/>
  <path d="M378 208 Q384 224 400 229 Q416 224 422 208" fill="#5a3010" opacity="0.85"/>

  <!-- Power aura -->
  <ellipse cx="400" cy="265" rx="130" ry="140" fill="#ff8f00" opacity="0.06"/>

  <!-- Falling ceiling dust -->
  <circle cx="350" cy="55" r="4" fill="#c8a060" opacity="0.6"/>
  <circle cx="380" cy="38" r="3" fill="#d4aa70" opacity="0.5"/>
  <circle cx="420" cy="42" r="4" fill="#c8a060" opacity="0.6"/>
  <circle cx="450" cy="60" r="3" fill="#d4aa70" opacity="0.55"/>
  <circle cx="330" cy="70" r="2.5" fill="#b89040" opacity="0.5"/>
  <circle cx="470" cy="65" r="3" fill="#b89040" opacity="0.5"/>

  <!-- Caption -->
  <rect x="10" y="344" width="430" height="28" rx="14" fill="#3a1800" opacity="0.9"/>
  <text x="225" y="363" font-family="Georgia, serif" font-size="14" fill="#ffe082" text-anchor="middle" font-weight="bold">Sansão empurra os pilares com toda sua força!</text>
</svg>
